<mxfile host="app.diagrams.net" modified="2021-06-02T07:39:30.061Z" agent="5.0 (Windows)" etag="gooZS1H9ycO1M782JFOQ" version="14.7.3" type="github">
  <diagram id="v1MML3pD3iU6FN-0QKCX" name="Page-1">
    <mxGraphModel dx="1002" dy="593" grid="1" gridSize="10" guides="1" tooltips="1" connect="1" arrows="1" fold="1" page="1" pageScale="1" pageWidth="3300" pageHeight="4681" math="0" shadow="0">
      <root>
        <mxCell id="0" />
        <mxCell id="1" parent="0" />
        <mxCell id="gzGk77P-xv0N86IO1BmV-1" value="" style="edgeStyle=orthogonalEdgeStyle;rounded=0;orthogonalLoop=1;jettySize=auto;html=1;" parent="1" source="gzGk77P-xv0N86IO1BmV-2" target="gzGk77P-xv0N86IO1BmV-4" edge="1">
          <mxGeometry relative="1" as="geometry" />
        </mxCell>
        <mxCell id="gzGk77P-xv0N86IO1BmV-2" value="Начало" style="ellipse;whiteSpace=wrap;html=1;" parent="1" vertex="1">
          <mxGeometry x="40" y="40" width="120" height="80" as="geometry" />
        </mxCell>
        <mxCell id="gzGk77P-xv0N86IO1BmV-3" style="edgeStyle=orthogonalEdgeStyle;rounded=0;orthogonalLoop=1;jettySize=auto;html=1;entryX=0.5;entryY=0;entryDx=0;entryDy=0;" parent="1" source="gzGk77P-xv0N86IO1BmV-4" target="gzGk77P-xv0N86IO1BmV-6" edge="1">
          <mxGeometry relative="1" as="geometry" />
        </mxCell>
        <mxCell id="gzGk77P-xv0N86IO1BmV-4" value="&lt;font style=&quot;font-size: 12px&quot;&gt;&lt;span style=&quot;line-height: 24.8208px ; font-family: &amp;#34;calibri&amp;#34; , &amp;#34;calibri_embeddedfont&amp;#34; , &amp;#34;calibri_msfontservice&amp;#34; , sans-serif&quot; class=&quot;TextRun  BCX2 SCXW25673797&quot; lang=&quot;RU-RU&quot;&gt;&lt;span class=&quot;NormalTextRun  BCX2 SCXW25673797&quot;&gt;&lt;/span&gt;&lt;span class=&quot;SpellingError  BCX2 SCXW25673797&quot;&gt;const&lt;/span&gt;&lt;span class=&quot;NormalTextRun  BCX2 SCXW25673797&quot;&gt; &lt;/span&gt;&lt;span class=&quot;SpellingError  BCX2 SCXW25673797&quot;&gt;int&lt;/span&gt;&lt;span class=&quot;NormalTextRun  BCX2 SCXW25673797&quot;&gt; &lt;/span&gt;&lt;span class=&quot;NormalTextRun  BCX2 SCXW25673797&quot;&gt;N=&lt;/span&gt;&lt;span class=&quot;NormalTextRun  BCX2 SCXW25673797&quot;&gt;15&lt;/span&gt;&lt;span class=&quot;NormalTextRun  BCX2 SCXW25673797&quot;&gt;;&lt;/span&gt;&lt;/span&gt;&lt;span class=&quot;LineBreakBlob BlobObject DragDrop  BCX2 SCXW25673797&quot; style=&quot;line-height: 24.8208px ; font-family: &amp;#34;wordvisicarriagereturn_msfontservice&amp;#34; , &amp;#34;calibri&amp;#34; , &amp;#34;calibri_embeddedfont&amp;#34; , &amp;#34;calibri_msfontservice&amp;#34; , sans-serif&quot;&gt;&lt;span class=&quot;BCX2 SCXW25673797&quot;&gt;&amp;nbsp;&lt;/span&gt;&lt;br class=&quot;BCX2 SCXW25673797&quot;&gt;&lt;/span&gt;&lt;span style=&quot;line-height: 24.8208px ; font-family: &amp;#34;calibri&amp;#34; , &amp;#34;calibri_embeddedfont&amp;#34; , &amp;#34;calibri_msfontservice&amp;#34; , sans-serif&quot; class=&quot;TextRun  BCX2 SCXW25673797&quot; lang=&quot;RU-RU&quot;&gt;&lt;span class=&quot;NormalTextRun  BCX2 SCXW25673797&quot;&gt;&amp;nbsp;&amp;nbsp;&amp;nbsp; &lt;/span&gt;&lt;span class=&quot;SpellingError  BCX2 SCXW25673797&quot;&gt;int&lt;/span&gt;&lt;span class=&quot;NormalTextRun  BCX2 SCXW25673797&quot;&gt; &lt;/span&gt;&lt;span class=&quot;NormalTextRun  BCX2 SCXW25673797&quot;&gt;k&lt;/span&gt;&lt;span class=&quot;NormalTextRun  BCX2 SCXW25673797&quot;&gt;;&lt;/span&gt;&lt;/span&gt;&lt;span class=&quot;LineBreakBlob BlobObject DragDrop  BCX2 SCXW25673797&quot; style=&quot;line-height: 24.8208px ; font-family: &amp;#34;wordvisicarriagereturn_msfontservice&amp;#34; , &amp;#34;calibri&amp;#34; , &amp;#34;calibri_embeddedfont&amp;#34; , &amp;#34;calibri_msfontservice&amp;#34; , sans-serif&quot;&gt;&lt;span class=&quot;BCX2 SCXW25673797&quot;&gt;&amp;nbsp;&lt;/span&gt;&lt;br class=&quot;BCX2 SCXW25673797&quot;&gt;&lt;/span&gt;&lt;span style=&quot;line-height: 24.8208px ; font-family: &amp;#34;calibri&amp;#34; , &amp;#34;calibri_embeddedfont&amp;#34; , &amp;#34;calibri_msfontservice&amp;#34; , sans-serif&quot; class=&quot;TextRun  BCX2 SCXW25673797&quot; lang=&quot;RU-RU&quot;&gt;&lt;span class=&quot;NormalTextRun  BCX2 SCXW25673797&quot;&gt;&lt;/span&gt;&lt;/span&gt;&lt;/font&gt;" style="rounded=0;whiteSpace=wrap;html=1;" parent="1" vertex="1">
          <mxGeometry x="40" y="140" width="120" height="40" as="geometry" />
        </mxCell>
        <mxCell id="gzGk77P-xv0N86IO1BmV-5" style="edgeStyle=orthogonalEdgeStyle;rounded=0;orthogonalLoop=1;jettySize=auto;html=1;entryX=0.5;entryY=0;entryDx=0;entryDy=0;" parent="1" source="gzGk77P-xv0N86IO1BmV-6" target="gzGk77P-xv0N86IO1BmV-8" edge="1">
          <mxGeometry relative="1" as="geometry" />
        </mxCell>
        <mxCell id="gzGk77P-xv0N86IO1BmV-6" value="&lt;font style=&quot;font-size: 12px&quot;&gt;&lt;span style=&quot;line-height: 24.8208px ; font-family: &amp;#34;calibri&amp;#34; , &amp;#34;calibri_embeddedfont&amp;#34; , &amp;#34;calibri_msfontservice&amp;#34; , sans-serif&quot; class=&quot;TextRun SCXW25673797 BCX2&quot; lang=&quot;RU-RU&quot;&gt;&lt;span class=&quot;NormalTextRun SCXW25673797 BCX2&quot;&gt;&lt;/span&gt;&lt;span class=&quot;SpellingError SCXW25673797 BCX2&quot;&gt;for&lt;/span&gt;&lt;span class=&quot;NormalTextRun SCXW25673797 BCX2&quot;&gt; &lt;/span&gt;&lt;span class=&quot;NormalTextRun SCXW25673797 BCX2&quot;&gt;(&lt;/span&gt;&lt;span class=&quot;SpellingError SCXW25673797 BCX2&quot;&gt;int&lt;/span&gt;&lt;span class=&quot;NormalTextRun SCXW25673797 BCX2&quot;&gt; &lt;/span&gt;&lt;span class=&quot;NormalTextRun SCXW25673797 BCX2&quot;&gt;i=&lt;/span&gt;&lt;span class=&quot;NormalTextRun SCXW25673797 BCX2&quot;&gt;1&lt;/span&gt;&lt;span class=&quot;NormalTextRun SCXW25673797 BCX2&quot;&gt;; &lt;/span&gt;&lt;span class=&quot;ContextualSpellingAndGrammarError SCXW25673797 BCX2&quot;&gt;i&amp;lt;&lt;/span&gt;&lt;span class=&quot;NormalTextRun SCXW25673797 BCX2&quot;&gt;=N&lt;/span&gt;&lt;span class=&quot;NormalTextRun SCXW25673797 BCX2&quot;&gt;; &lt;/span&gt;&lt;span class=&quot;NormalTextRun SCXW25673797 BCX2&quot;&gt;i+&lt;/span&gt;&lt;span class=&quot;ContextualSpellingAndGrammarError SCXW25673797 BCX2&quot;&gt;+){&lt;/span&gt;&lt;/span&gt;&lt;/font&gt;&lt;span class=&quot;LineBreakBlob BlobObject DragDrop SCXW25673797 BCX2&quot; style=&quot;line-height: 24.8208px ; font-family: &amp;#34;wordvisicarriagereturn_msfontservice&amp;#34; , &amp;#34;calibri&amp;#34; , &amp;#34;calibri_embeddedfont&amp;#34; , &amp;#34;calibri_msfontservice&amp;#34; , sans-serif&quot;&gt;&lt;font style=&quot;font-size: 12px&quot;&gt;&lt;span class=&quot;SCXW25673797 BCX2&quot;&gt; &lt;/span&gt;&lt;/font&gt;}&lt;br class=&quot;SCXW25673797 BCX2&quot;&gt;&lt;/span&gt;&lt;span style=&quot;line-height: 24.8208px ; font-family: &amp;#34;calibri&amp;#34; , &amp;#34;calibri_embeddedfont&amp;#34; , &amp;#34;calibri_msfontservice&amp;#34; , sans-serif&quot; class=&quot;TextRun SCXW25673797 BCX2&quot; lang=&quot;RU-RU&quot;&gt;&lt;span class=&quot;NormalTextRun SCXW25673797 BCX2&quot;&gt;&lt;/span&gt;&lt;/span&gt;" style="shape=loopLimit;whiteSpace=wrap;html=1;" parent="1" vertex="1">
          <mxGeometry x="40" y="200" width="120" height="40" as="geometry" />
        </mxCell>
        <mxCell id="gzGk77P-xv0N86IO1BmV-7" value="" style="edgeStyle=orthogonalEdgeStyle;rounded=0;orthogonalLoop=1;jettySize=auto;html=1;" parent="1" source="gzGk77P-xv0N86IO1BmV-8" target="gzGk77P-xv0N86IO1BmV-11" edge="1">
          <mxGeometry relative="1" as="geometry" />
        </mxCell>
        <mxCell id="gzGk77P-xv0N86IO1BmV-8" value="&lt;font style=&quot;font-size: 12px&quot;&gt;&lt;span style=&quot;line-height: 24.8208px ; font-family: &amp;#34;calibri&amp;#34; , &amp;#34;calibri_embeddedfont&amp;#34; , &amp;#34;calibri_msfontservice&amp;#34; , sans-serif&quot; class=&quot;TextRun SCXW25673797 BCX2&quot; lang=&quot;RU-RU&quot;&gt;&lt;span class=&quot;NormalTextRun SCXW25673797 BCX2&quot;&gt;&lt;/span&gt;&lt;span class=&quot;SpellingError SCXW25673797 BCX2&quot;&gt;for&lt;/span&gt;&lt;span class=&quot;NormalTextRun SCXW25673797 BCX2&quot;&gt; &lt;/span&gt;&lt;span class=&quot;NormalTextRun SCXW25673797 BCX2&quot;&gt;(&lt;/span&gt;&lt;span class=&quot;SpellingError SCXW25673797 BCX2&quot;&gt;int&lt;/span&gt;&lt;span class=&quot;NormalTextRun SCXW25673797 BCX2&quot;&gt; &lt;/span&gt;&lt;span class=&quot;NormalTextRun SCXW25673797 BCX2&quot;&gt;j=&lt;/span&gt;&lt;span class=&quot;NormalTextRun SCXW25673797 BCX2&quot;&gt;1&lt;/span&gt;&lt;span class=&quot;NormalTextRun SCXW25673797 BCX2&quot;&gt;; &lt;/span&gt;&lt;span class=&quot;ContextualSpellingAndGrammarError SCXW25673797 BCX2&quot;&gt;j&amp;lt;&lt;/span&gt;&lt;span class=&quot;NormalTextRun SCXW25673797 BCX2&quot;&gt;=N&lt;/span&gt;&lt;span class=&quot;NormalTextRun SCXW25673797 BCX2&quot;&gt;; &lt;/span&gt;&lt;span class=&quot;NormalTextRun SCXW25673797 BCX2&quot;&gt;j+&lt;/span&gt;&lt;span class=&quot;ContextualSpellingAndGrammarError SCXW25673797 BCX2&quot;&gt;+){&lt;/span&gt;&lt;/span&gt;&lt;/font&gt;&lt;span class=&quot;LineBreakBlob BlobObject DragDrop SCXW25673797 BCX2&quot; style=&quot;line-height: 24.8208px ; font-family: &amp;#34;wordvisicarriagereturn_msfontservice&amp;#34; , &amp;#34;calibri&amp;#34; , &amp;#34;calibri_embeddedfont&amp;#34; , &amp;#34;calibri_msfontservice&amp;#34; , sans-serif&quot;&gt;&lt;font style=&quot;font-size: 12px&quot;&gt;&lt;span class=&quot;SCXW25673797 BCX2&quot;&gt; &lt;/span&gt;&lt;/font&gt;}&lt;br class=&quot;SCXW25673797 BCX2&quot;&gt;&lt;/span&gt;&lt;span style=&quot;line-height: 24.8208px ; font-family: &amp;#34;calibri&amp;#34; , &amp;#34;calibri_embeddedfont&amp;#34; , &amp;#34;calibri_msfontservice&amp;#34; , sans-serif&quot; class=&quot;TextRun SCXW25673797 BCX2&quot; lang=&quot;RU-RU&quot;&gt;&lt;span class=&quot;NormalTextRun SCXW25673797 BCX2&quot;&gt;&lt;/span&gt;&lt;/span&gt;" style="shape=loopLimit;whiteSpace=wrap;html=1;" parent="1" vertex="1">
          <mxGeometry x="40" y="260" width="120" height="40" as="geometry" />
        </mxCell>
        <mxCell id="gzGk77P-xv0N86IO1BmV-9" value="Yes" style="edgeStyle=orthogonalEdgeStyle;rounded=0;orthogonalLoop=1;jettySize=auto;html=1;" parent="1" source="gzGk77P-xv0N86IO1BmV-11" target="gzGk77P-xv0N86IO1BmV-13" edge="1">
          <mxGeometry relative="1" as="geometry">
            <mxPoint as="offset" />
          </mxGeometry>
        </mxCell>
        <mxCell id="gzGk77P-xv0N86IO1BmV-10" value="No" style="edgeStyle=orthogonalEdgeStyle;rounded=0;orthogonalLoop=1;jettySize=auto;html=1;entryX=0.5;entryY=0;entryDx=0;entryDy=0;" parent="1" source="gzGk77P-xv0N86IO1BmV-11" target="gzGk77P-xv0N86IO1BmV-15" edge="1">
          <mxGeometry relative="1" as="geometry">
            <mxPoint x="200" y="380" as="targetPoint" />
            <Array as="points">
              <mxPoint x="200" y="380" />
            </Array>
          </mxGeometry>
        </mxCell>
        <mxCell id="gzGk77P-xv0N86IO1BmV-11" value="if (j&amp;gt;i) {}" style="rhombus;whiteSpace=wrap;html=1;" parent="1" vertex="1">
          <mxGeometry x="40" y="320" width="120" height="120" as="geometry" />
        </mxCell>
        <mxCell id="gzGk77P-xv0N86IO1BmV-12" value="" style="edgeStyle=orthogonalEdgeStyle;rounded=0;orthogonalLoop=1;jettySize=auto;html=1;" parent="1" source="gzGk77P-xv0N86IO1BmV-13" target="gzGk77P-xv0N86IO1BmV-17" edge="1">
          <mxGeometry relative="1" as="geometry" />
        </mxCell>
        <mxCell id="gzGk77P-xv0N86IO1BmV-13" value="k = i;" style="rounded=0;whiteSpace=wrap;html=1;" parent="1" vertex="1">
          <mxGeometry x="40" y="480" width="120" height="40" as="geometry" />
        </mxCell>
        <mxCell id="gzGk77P-xv0N86IO1BmV-14" style="edgeStyle=orthogonalEdgeStyle;rounded=0;orthogonalLoop=1;jettySize=auto;html=1;entryX=0.5;entryY=0;entryDx=0;entryDy=0;" parent="1" source="gzGk77P-xv0N86IO1BmV-15" target="gzGk77P-xv0N86IO1BmV-17" edge="1">
          <mxGeometry relative="1" as="geometry">
            <Array as="points">
              <mxPoint x="200" y="540" />
              <mxPoint x="100" y="540" />
            </Array>
          </mxGeometry>
        </mxCell>
        <mxCell id="gzGk77P-xv0N86IO1BmV-15" value="k = j;" style="rounded=0;whiteSpace=wrap;html=1;" parent="1" vertex="1">
          <mxGeometry x="140" y="420" width="120" height="40" as="geometry" />
        </mxCell>
        <mxCell id="gzGk77P-xv0N86IO1BmV-16" value="" style="edgeStyle=orthogonalEdgeStyle;rounded=0;orthogonalLoop=1;jettySize=auto;html=1;" parent="1" source="gzGk77P-xv0N86IO1BmV-17" target="gzGk77P-xv0N86IO1BmV-19" edge="1">
          <mxGeometry relative="1" as="geometry" />
        </mxCell>
        <mxCell id="gzGk77P-xv0N86IO1BmV-17" value="&lt;font style=&quot;font-size: 12px&quot;&gt;&lt;span style=&quot;line-height: 24.8208px ; font-family: &amp;#34;calibri&amp;#34; , &amp;#34;calibri_embeddedfont&amp;#34; , &amp;#34;calibri_msfontservice&amp;#34; , sans-serif&quot; class=&quot;TextRun  BCX2 SCXW239751490&quot; lang=&quot;RU-RU&quot;&gt;&lt;span class=&quot;NormalTextRun  BCX2 SCXW239751490&quot;&gt;&lt;/span&gt;&lt;span class=&quot;SpellingError  BCX2 SCXW239751490&quot;&gt;std&lt;/span&gt;&lt;span class=&quot;NormalTextRun  BCX2 SCXW239751490&quot;&gt;::&lt;/span&gt;&lt;span class=&quot;SpellingError  BCX2 SCXW239751490&quot;&gt;cout&lt;/span&gt;&lt;span class=&quot;NormalTextRun  BCX2 SCXW239751490&quot;&gt;&amp;lt;&amp;lt;&lt;/span&gt;&lt;span class=&quot;NormalTextRun  BCX2 SCXW239751490&quot;&gt;k&lt;/span&gt;&lt;span class=&quot;ContextualSpellingAndGrammarError  BCX2 SCXW239751490&quot;&gt;&amp;lt;&amp;lt; &lt;/span&gt;&lt;span class=&quot;ContextualSpellingAndGrammarError  BCX2 SCXW239751490&quot;&gt;&quot;&lt;/span&gt;&lt;span class=&quot;NormalTextRun  BCX2 SCXW239751490&quot;&gt;\t&lt;/span&gt;&lt;span class=&quot;NormalTextRun  BCX2 SCXW239751490&quot;&gt;&quot;&lt;/span&gt;&lt;span class=&quot;NormalTextRun  BCX2 SCXW239751490&quot;&gt;;&lt;/span&gt;&lt;/span&gt;&lt;/font&gt;&lt;span class=&quot;LineBreakBlob BlobObject DragDrop  BCX2 SCXW239751490&quot; style=&quot;line-height: 24.8208px ; font-family: &amp;#34;wordvisicarriagereturn_msfontservice&amp;#34; , &amp;#34;calibri&amp;#34; , &amp;#34;calibri_embeddedfont&amp;#34; , &amp;#34;calibri_msfontservice&amp;#34; , sans-serif&quot;&gt;&lt;font style=&quot;font-size: 12px&quot;&gt;&lt;span class=&quot;BCX2 SCXW239751490&quot;&gt;&amp;nbsp;&lt;/span&gt;&lt;/font&gt;&lt;br class=&quot;BCX2 SCXW239751490&quot;&gt;&lt;/span&gt;&lt;span style=&quot;font-size: 14pt ; line-height: 24.8208px ; font-family: &amp;#34;calibri&amp;#34; , &amp;#34;calibri_embeddedfont&amp;#34; , &amp;#34;calibri_msfontservice&amp;#34; , sans-serif&quot; class=&quot;TextRun  BCX2 SCXW239751490&quot; lang=&quot;RU-RU&quot;&gt;&lt;span class=&quot;NormalTextRun  BCX2 SCXW239751490&quot;&gt;&lt;/span&gt;&lt;/span&gt;" style="rounded=0;whiteSpace=wrap;html=1;" parent="1" vertex="1">
          <mxGeometry x="40" y="560" width="120" height="40" as="geometry" />
        </mxCell>
        <mxCell id="gzGk77P-xv0N86IO1BmV-18" value="" style="edgeStyle=orthogonalEdgeStyle;rounded=0;orthogonalLoop=1;jettySize=auto;html=1;" parent="1" source="gzGk77P-xv0N86IO1BmV-19" target="gzGk77P-xv0N86IO1BmV-21" edge="1">
          <mxGeometry relative="1" as="geometry" />
        </mxCell>
        <mxCell id="gzGk77P-xv0N86IO1BmV-19" value="" style="shape=loopLimit;whiteSpace=wrap;html=1;rotation=180;" parent="1" vertex="1">
          <mxGeometry x="40" y="620" width="120" height="40" as="geometry" />
        </mxCell>
        <mxCell id="gzGk77P-xv0N86IO1BmV-20" value="" style="edgeStyle=orthogonalEdgeStyle;rounded=0;orthogonalLoop=1;jettySize=auto;html=1;" parent="1" source="gzGk77P-xv0N86IO1BmV-21" target="gzGk77P-xv0N86IO1BmV-23" edge="1">
          <mxGeometry relative="1" as="geometry" />
        </mxCell>
        <mxCell id="gzGk77P-xv0N86IO1BmV-21" value="&lt;font style=&quot;font-size: 12px&quot;&gt;&lt;span style=&quot;line-height: 24.8208px ; font-family: &amp;#34;calibri&amp;#34; , &amp;#34;calibri_embeddedfont&amp;#34; , &amp;#34;calibri_msfontservice&amp;#34; , sans-serif&quot; class=&quot;TextRun  BCX2 SCXW239751490&quot; lang=&quot;RU-RU&quot;&gt;&lt;span class=&quot;NormalTextRun  BCX2 SCXW239751490&quot;&gt;&lt;/span&gt;&lt;span class=&quot;SpellingError  BCX2 SCXW239751490&quot;&gt;std&lt;/span&gt;&lt;span class=&quot;NormalTextRun  BCX2 SCXW239751490&quot;&gt;::&lt;/span&gt;&lt;span class=&quot;SpellingError  BCX2 SCXW239751490&quot;&gt;cout&lt;/span&gt;&lt;span class=&quot;NormalTextRun  BCX2 SCXW239751490&quot;&gt;&amp;lt;&amp;lt;&lt;/span&gt;&lt;span class=&quot;NormalTextRun  BCX2 SCXW239751490&quot;&gt;&lt;/span&gt;&lt;span class=&quot;ContextualSpellingAndGrammarError  BCX2 SCXW239751490&quot;&gt;&lt;/span&gt;&lt;span class=&quot;ContextualSpellingAndGrammarError  BCX2 SCXW239751490&quot;&gt;&quot;n\n\&lt;/span&gt;&lt;span class=&quot;NormalTextRun  BCX2 SCXW239751490&quot;&gt;&lt;/span&gt;&lt;span class=&quot;NormalTextRun  BCX2 SCXW239751490&quot;&gt;&quot;&lt;/span&gt;&lt;span class=&quot;NormalTextRun  BCX2 SCXW239751490&quot;&gt;;&lt;/span&gt;&lt;/span&gt;&lt;/font&gt;&lt;span class=&quot;LineBreakBlob BlobObject DragDrop  BCX2 SCXW239751490&quot; style=&quot;line-height: 24.8208px ; font-family: &amp;#34;wordvisicarriagereturn_msfontservice&amp;#34; , &amp;#34;calibri&amp;#34; , &amp;#34;calibri_embeddedfont&amp;#34; , &amp;#34;calibri_msfontservice&amp;#34; , sans-serif&quot;&gt;&lt;font style=&quot;font-size: 12px&quot;&gt;&lt;span class=&quot;BCX2 SCXW239751490&quot;&gt;&amp;nbsp;&lt;/span&gt;&lt;/font&gt;&lt;br class=&quot;BCX2 SCXW239751490&quot;&gt;&lt;/span&gt;&lt;span style=&quot;font-size: 14pt ; line-height: 24.8208px ; font-family: &amp;#34;calibri&amp;#34; , &amp;#34;calibri_embeddedfont&amp;#34; , &amp;#34;calibri_msfontservice&amp;#34; , sans-serif&quot; class=&quot;TextRun  BCX2 SCXW239751490&quot; lang=&quot;RU-RU&quot;&gt;&lt;span class=&quot;NormalTextRun  BCX2 SCXW239751490&quot;&gt;&lt;/span&gt;&lt;/span&gt;" style="rounded=0;whiteSpace=wrap;html=1;" parent="1" vertex="1">
          <mxGeometry x="40" y="680" width="120" height="40" as="geometry" />
        </mxCell>
        <mxCell id="gzGk77P-xv0N86IO1BmV-22" value="" style="edgeStyle=orthogonalEdgeStyle;rounded=0;orthogonalLoop=1;jettySize=auto;html=1;" parent="1" source="gzGk77P-xv0N86IO1BmV-23" target="gzGk77P-xv0N86IO1BmV-24" edge="1">
          <mxGeometry relative="1" as="geometry" />
        </mxCell>
        <mxCell id="gzGk77P-xv0N86IO1BmV-23" value="" style="shape=loopLimit;whiteSpace=wrap;html=1;rotation=180;" parent="1" vertex="1">
          <mxGeometry x="40" y="740" width="120" height="40" as="geometry" />
        </mxCell>
        <mxCell id="gzGk77P-xv0N86IO1BmV-24" value="Конец" style="ellipse;whiteSpace=wrap;html=1;" parent="1" vertex="1">
          <mxGeometry x="40" y="800" width="120" height="80" as="geometry" />
        </mxCell>
        <mxCell id="gzGk77P-xv0N86IO1BmV-25" value="" style="edgeStyle=orthogonalEdgeStyle;rounded=0;orthogonalLoop=1;jettySize=auto;html=1;" parent="1" source="gzGk77P-xv0N86IO1BmV-26" target="gzGk77P-xv0N86IO1BmV-29" edge="1">
          <mxGeometry relative="1" as="geometry" />
        </mxCell>
        <mxCell id="gzGk77P-xv0N86IO1BmV-26" value="Начало" style="ellipse;whiteSpace=wrap;html=1;" parent="1" vertex="1">
          <mxGeometry x="240" y="40" width="120" height="80" as="geometry" />
        </mxCell>
        <mxCell id="gzGk77P-xv0N86IO1BmV-27" value="Конец" style="ellipse;whiteSpace=wrap;html=1;" parent="1" vertex="1">
          <mxGeometry x="240" y="200" width="120" height="80" as="geometry" />
        </mxCell>
        <mxCell id="gzGk77P-xv0N86IO1BmV-28" value="" style="edgeStyle=orthogonalEdgeStyle;rounded=0;orthogonalLoop=1;jettySize=auto;html=1;" parent="1" source="gzGk77P-xv0N86IO1BmV-29" target="gzGk77P-xv0N86IO1BmV-27" edge="1">
          <mxGeometry relative="1" as="geometry" />
        </mxCell>
        <mxCell id="gzGk77P-xv0N86IO1BmV-29" value="std::cout &amp;lt;&amp;lt; &quot;...&quot;;" style="rounded=0;whiteSpace=wrap;html=1;" parent="1" vertex="1">
          <mxGeometry x="240" y="140" width="120" height="40" as="geometry" />
        </mxCell>
        <mxCell id="gzGk77P-xv0N86IO1BmV-30" value="" style="edgeStyle=orthogonalEdgeStyle;rounded=0;orthogonalLoop=1;jettySize=auto;html=1;" parent="1" source="gzGk77P-xv0N86IO1BmV-31" target="gzGk77P-xv0N86IO1BmV-33" edge="1">
          <mxGeometry relative="1" as="geometry" />
        </mxCell>
        <mxCell id="gzGk77P-xv0N86IO1BmV-31" value="Начало" style="ellipse;whiteSpace=wrap;html=1;" parent="1" vertex="1">
          <mxGeometry x="440" y="40" width="120" height="80" as="geometry" />
        </mxCell>
        <mxCell id="gzGk77P-xv0N86IO1BmV-32" value="" style="edgeStyle=orthogonalEdgeStyle;rounded=0;orthogonalLoop=1;jettySize=auto;html=1;" parent="1" source="gzGk77P-xv0N86IO1BmV-33" target="gzGk77P-xv0N86IO1BmV-36" edge="1">
          <mxGeometry relative="1" as="geometry" />
        </mxCell>
        <mxCell id="gzGk77P-xv0N86IO1BmV-33" value="ввод k,l,m,n;" style="rounded=0;whiteSpace=wrap;html=1;" parent="1" vertex="1">
          <mxGeometry x="440" y="140" width="120" height="40" as="geometry" />
        </mxCell>
        <mxCell id="gzGk77P-xv0N86IO1BmV-34" value="Yes" style="edgeStyle=orthogonalEdgeStyle;rounded=0;orthogonalLoop=1;jettySize=auto;html=1;" parent="1" source="gzGk77P-xv0N86IO1BmV-36" target="gzGk77P-xv0N86IO1BmV-38" edge="1">
          <mxGeometry relative="1" as="geometry" />
        </mxCell>
        <mxCell id="gzGk77P-xv0N86IO1BmV-35" style="edgeStyle=orthogonalEdgeStyle;rounded=0;orthogonalLoop=1;jettySize=auto;html=1;entryX=0.5;entryY=0;entryDx=0;entryDy=0;" parent="1" source="gzGk77P-xv0N86IO1BmV-36" target="gzGk77P-xv0N86IO1BmV-44" edge="1">
          <mxGeometry relative="1" as="geometry">
            <Array as="points">
              <mxPoint x="620" y="280" />
            </Array>
          </mxGeometry>
        </mxCell>
        <mxCell id="gzGk77P-xv0N86IO1BmV-36" value="&lt;div&gt;&lt;font style=&quot;font-size: 12px&quot;&gt;&lt;span style=&quot;font-style: normal ; line-height: 24.8208px ; font-family: &amp;#34;calibri&amp;#34; , &amp;#34;calibri_embeddedfont&amp;#34; , &amp;#34;calibri_msfontservice&amp;#34; , sans-serif ; font-weight: normal&quot; class=&quot;TextRun  BCX2 SCXW75789815&quot; lang=&quot;RU-RU&quot;&gt;&lt;span class=&quot;NormalTextRun  BCX2 SCXW75789815&quot;&gt; &lt;/span&gt;&lt;span class=&quot;SpellingError  BCX2 SCXW75789815&quot;&gt;if&lt;/span&gt;&lt;span class=&quot;NormalTextRun  BCX2 SCXW75789815&quot;&gt; ((&lt;/span&gt;&lt;span class=&quot;ContextualSpellingAndGrammarError  BCX2 SCXW75789815&quot;&gt;k &amp;gt;&lt;/span&gt;&lt;span class=&quot;NormalTextRun  BCX2 SCXW75789815&quot;&gt; 8) || (&lt;/span&gt;&lt;span class=&quot;ContextualSpellingAndGrammarError  BCX2 SCXW75789815&quot;&gt;l &amp;gt;&lt;/span&gt;&lt;span class=&quot;NormalTextRun  BCX2 SCXW75789815&quot;&gt; 8)|| &lt;br&gt;&lt;/span&gt;&lt;/span&gt;&lt;/font&gt;&lt;/div&gt;&lt;div&gt;&lt;font style=&quot;font-size: 12px&quot;&gt;&lt;span style=&quot;font-style: normal ; line-height: 24.8208px ; font-family: &amp;#34;calibri&amp;#34; , &amp;#34;calibri_embeddedfont&amp;#34; , &amp;#34;calibri_msfontservice&amp;#34; , sans-serif ; font-weight: normal&quot; class=&quot;TextRun  BCX2 SCXW75789815&quot; lang=&quot;RU-RU&quot;&gt;&lt;span class=&quot;NormalTextRun  BCX2 SCXW75789815&quot;&gt;(&lt;/span&gt;&lt;span class=&quot;ContextualSpellingAndGrammarError  BCX2 SCXW75789815&quot;&gt;n &amp;gt;&lt;/span&gt;&lt;span class=&quot;NormalTextRun  BCX2 SCXW75789815&quot;&gt; 8) || (&lt;/span&gt;&lt;span class=&quot;ContextualSpellingAndGrammarError  BCX2 SCXW75789815&quot;&gt;m &amp;gt;&lt;/span&gt;&lt;span class=&quot;NormalTextRun  BCX2 SCXW75789815&quot;&gt; 8)) {&lt;/span&gt;&lt;/span&gt;&lt;/font&gt;&lt;font style=&quot;font-size: 12px&quot;&gt;&lt;span class=&quot;LineBreakBlob BlobObject DragDrop  BCX2 SCXW75789815&quot; style=&quot;line-height: 24.8208px ; font-family: &amp;#34;wordvisicarriagereturn_msfontservice&amp;#34; , &amp;#34;calibri&amp;#34; , &amp;#34;calibri_embeddedfont&amp;#34; , &amp;#34;calibri_msfontservice&amp;#34; , sans-serif&quot;&gt;&lt;font style=&quot;font-size: 12px&quot;&gt;&lt;span class=&quot;BCX2 SCXW75789815&quot;&gt;}&lt;br&gt;&lt;/span&gt;&lt;/font&gt;&lt;/span&gt;&lt;/font&gt;&lt;/div&gt;&lt;div&gt;&lt;font style=&quot;font-size: 12px&quot;&gt;&lt;span class=&quot;LineBreakBlob BlobObject DragDrop  BCX2 SCXW75789815&quot; style=&quot;line-height: 24.8208px ; font-family: &amp;#34;wordvisicarriagereturn_msfontservice&amp;#34; , &amp;#34;calibri&amp;#34; , &amp;#34;calibri_embeddedfont&amp;#34; , &amp;#34;calibri_msfontservice&amp;#34; , sans-serif&quot;&gt;&lt;/span&gt;&lt;/font&gt;&lt;/div&gt;&lt;font style=&quot;font-size: 12px&quot;&gt;&lt;span style=&quot;font-style: normal ; line-height: 24.8208px ; font-family: &amp;#34;calibri&amp;#34; , &amp;#34;calibri_embeddedfont&amp;#34; , &amp;#34;calibri_msfontservice&amp;#34; , sans-serif ; font-weight: normal&quot; class=&quot;TextRun  BCX2 SCXW75789815&quot; lang=&quot;RU-RU&quot;&gt;&lt;span class=&quot;NormalTextRun  BCX2 SCXW75789815&quot;&gt;&lt;/span&gt;&lt;/span&gt;&lt;/font&gt;" style="rhombus;whiteSpace=wrap;html=1;" parent="1" vertex="1">
          <mxGeometry x="420" y="200" width="160" height="160" as="geometry" />
        </mxCell>
        <mxCell id="gzGk77P-xv0N86IO1BmV-37" value="" style="edgeStyle=orthogonalEdgeStyle;rounded=0;orthogonalLoop=1;jettySize=auto;html=1;" parent="1" source="gzGk77P-xv0N86IO1BmV-38" target="gzGk77P-xv0N86IO1BmV-43" edge="1">
          <mxGeometry relative="1" as="geometry" />
        </mxCell>
        <mxCell id="gzGk77P-xv0N86IO1BmV-38" value="вывод: &quot;Wrong Data&quot;" style="rounded=0;whiteSpace=wrap;html=1;" parent="1" vertex="1">
          <mxGeometry x="440" y="560" width="120" height="40" as="geometry" />
        </mxCell>
        <mxCell id="gzGk77P-xv0N86IO1BmV-39" value="" style="edgeStyle=orthogonalEdgeStyle;rounded=0;orthogonalLoop=1;jettySize=auto;html=1;" parent="1" source="gzGk77P-xv0N86IO1BmV-40" target="gzGk77P-xv0N86IO1BmV-46" edge="1">
          <mxGeometry relative="1" as="geometry" />
        </mxCell>
        <mxCell id="gzGk77P-xv0N86IO1BmV-40" value="&lt;div&gt;&lt;span style=&quot;font-style: normal ; line-height: 24.8208px ; font-family: &amp;#34;calibri&amp;#34; , &amp;#34;calibri_embeddedfont&amp;#34; , &amp;#34;calibri_msfontservice&amp;#34; , sans-serif ; font-weight: normal&quot; class=&quot;TextRun  BCX2 SCXW75789815&quot; lang=&quot;RU-RU&quot;&gt;&lt;span class=&quot;NormalTextRun  BCX2 SCXW75789815&quot;&gt; &lt;/span&gt;&lt;span class=&quot;SpellingError  BCX2 SCXW75789815&quot;&gt;ct&lt;/span&gt;&lt;span class=&quot;NormalTextRun  BCX2 SCXW75789815&quot;&gt; = &lt;/span&gt;&lt;span class=&quot;SpellingError  BCX2 SCXW75789815&quot;&gt;abs&lt;/span&gt;&lt;span class=&quot;NormalTextRun  BCX2 SCXW75789815&quot;&gt;(n - k) + &lt;/span&gt;&lt;span class=&quot;SpellingError  BCX2 SCXW75789815&quot;&gt;&lt;br&gt;&lt;/span&gt;&lt;/span&gt;&lt;/div&gt;&lt;div&gt;&lt;span style=&quot;font-style: normal ; line-height: 24.8208px ; font-family: &amp;#34;calibri&amp;#34; , &amp;#34;calibri_embeddedfont&amp;#34; , &amp;#34;calibri_msfontservice&amp;#34; , sans-serif ; font-weight: normal&quot; class=&quot;TextRun  BCX2 SCXW75789815&quot; lang=&quot;RU-RU&quot;&gt;&lt;span class=&quot;SpellingError  BCX2 SCXW75789815&quot;&gt;abs&lt;/span&gt;&lt;span class=&quot;NormalTextRun  BCX2 SCXW75789815&quot;&gt;(m - l);&lt;/span&gt;&lt;/span&gt;&lt;/div&gt;" style="rounded=0;whiteSpace=wrap;html=1;" parent="1" vertex="1">
          <mxGeometry x="560" y="380" width="120" height="40" as="geometry" />
        </mxCell>
        <mxCell id="gzGk77P-xv0N86IO1BmV-41" style="edgeStyle=orthogonalEdgeStyle;rounded=0;orthogonalLoop=1;jettySize=auto;html=1;" parent="1" source="gzGk77P-xv0N86IO1BmV-42" target="gzGk77P-xv0N86IO1BmV-43" edge="1">
          <mxGeometry relative="1" as="geometry">
            <Array as="points">
              <mxPoint x="620" y="620" />
              <mxPoint x="500" y="620" />
            </Array>
          </mxGeometry>
        </mxCell>
        <mxCell id="gzGk77P-xv0N86IO1BmV-42" value="вывод: &quot;Number of steps for king is: &quot; ct" style="rounded=0;whiteSpace=wrap;html=1;" parent="1" vertex="1">
          <mxGeometry x="560" y="500" width="120" height="40" as="geometry" />
        </mxCell>
        <mxCell id="gzGk77P-xv0N86IO1BmV-43" value="Конец" style="ellipse;whiteSpace=wrap;html=1;" parent="1" vertex="1">
          <mxGeometry x="440" y="640" width="120" height="80" as="geometry" />
        </mxCell>
        <mxCell id="gzGk77P-xv0N86IO1BmV-44" value="turns(int k, l, m, n) {}" style="rounded=1;whiteSpace=wrap;html=1;" parent="1" vertex="1">
          <mxGeometry x="560" y="320" width="120" height="40" as="geometry" />
        </mxCell>
        <mxCell id="gzGk77P-xv0N86IO1BmV-45" value="" style="edgeStyle=orthogonalEdgeStyle;rounded=0;orthogonalLoop=1;jettySize=auto;html=1;" parent="1" source="gzGk77P-xv0N86IO1BmV-46" target="gzGk77P-xv0N86IO1BmV-42" edge="1">
          <mxGeometry relative="1" as="geometry" />
        </mxCell>
        <mxCell id="gzGk77P-xv0N86IO1BmV-46" value="return ct;" style="rounded=1;whiteSpace=wrap;html=1;" parent="1" vertex="1">
          <mxGeometry x="560" y="440" width="120" height="40" as="geometry" />
        </mxCell>
        <mxCell id="gzGk77P-xv0N86IO1BmV-47" value="" style="endArrow=classic;html=1;exitX=0.5;exitY=1;exitDx=0;exitDy=0;entryX=0.5;entryY=0;entryDx=0;entryDy=0;" parent="1" source="gzGk77P-xv0N86IO1BmV-44" target="gzGk77P-xv0N86IO1BmV-40" edge="1">
          <mxGeometry width="50" height="50" relative="1" as="geometry">
            <mxPoint x="690" y="400" as="sourcePoint" />
            <mxPoint x="740" y="350" as="targetPoint" />
          </mxGeometry>
        </mxCell>
        <mxCell id="gzGk77P-xv0N86IO1BmV-48" value="" style="edgeStyle=orthogonalEdgeStyle;rounded=0;orthogonalLoop=1;jettySize=auto;html=1;" parent="1" source="gzGk77P-xv0N86IO1BmV-49" target="gzGk77P-xv0N86IO1BmV-51" edge="1">
          <mxGeometry relative="1" as="geometry" />
        </mxCell>
        <mxCell id="gzGk77P-xv0N86IO1BmV-49" value="Начало" style="ellipse;whiteSpace=wrap;html=1;" parent="1" vertex="1">
          <mxGeometry x="720" y="40" width="120" height="80" as="geometry" />
        </mxCell>
        <mxCell id="gzGk77P-xv0N86IO1BmV-50" value="" style="edgeStyle=orthogonalEdgeStyle;rounded=0;orthogonalLoop=1;jettySize=auto;html=1;" parent="1" source="gzGk77P-xv0N86IO1BmV-51" edge="1">
          <mxGeometry relative="1" as="geometry">
            <mxPoint x="780" y="200" as="targetPoint" />
          </mxGeometry>
        </mxCell>
        <mxCell id="gzGk77P-xv0N86IO1BmV-51" value="ввод k,l,m,n;" style="rounded=0;whiteSpace=wrap;html=1;" parent="1" vertex="1">
          <mxGeometry x="720" y="140" width="120" height="40" as="geometry" />
        </mxCell>
        <mxCell id="gzGk77P-xv0N86IO1BmV-57" value="" style="edgeStyle=orthogonalEdgeStyle;rounded=0;orthogonalLoop=1;jettySize=auto;html=1;" parent="1" source="gzGk77P-xv0N86IO1BmV-58" target="gzGk77P-xv0N86IO1BmV-64" edge="1">
          <mxGeometry relative="1" as="geometry" />
        </mxCell>
        <mxCell id="gzGk77P-xv0N86IO1BmV-58" value="&lt;div&gt;&lt;span style=&quot;font-style: normal ; line-height: 24.8208px ; font-family: &amp;#34;calibri&amp;#34; , &amp;#34;calibri_embeddedfont&amp;#34; , &amp;#34;calibri_msfontservice&amp;#34; , sans-serif ; font-weight: normal&quot; class=&quot;TextRun  BCX2 SCXW75789815&quot; lang=&quot;RU-RU&quot;&gt;&lt;span class=&quot;NormalTextRun  BCX2 SCXW75789815&quot;&gt; &lt;/span&gt;&lt;span class=&quot;SpellingError  BCX2 SCXW75789815&quot;&gt;ct&lt;/span&gt;&lt;span class=&quot;NormalTextRun  BCX2 SCXW75789815&quot;&gt; = &lt;/span&gt;&lt;span class=&quot;SpellingError  BCX2 SCXW75789815&quot;&gt;abs&lt;/span&gt;&lt;span class=&quot;NormalTextRun  BCX2 SCXW75789815&quot;&gt;(n - k) + &lt;/span&gt;&lt;span class=&quot;SpellingError  BCX2 SCXW75789815&quot;&gt;&lt;br&gt;&lt;/span&gt;&lt;/span&gt;&lt;/div&gt;&lt;div&gt;&lt;span style=&quot;font-style: normal ; line-height: 24.8208px ; font-family: &amp;#34;calibri&amp;#34; , &amp;#34;calibri_embeddedfont&amp;#34; , &amp;#34;calibri_msfontservice&amp;#34; , sans-serif ; font-weight: normal&quot; class=&quot;TextRun  BCX2 SCXW75789815&quot; lang=&quot;RU-RU&quot;&gt;&lt;span class=&quot;SpellingError  BCX2 SCXW75789815&quot;&gt;abs&lt;/span&gt;&lt;span class=&quot;NormalTextRun  BCX2 SCXW75789815&quot;&gt;(m - l);&lt;/span&gt;&lt;/span&gt;&lt;/div&gt;" style="rounded=0;whiteSpace=wrap;html=1;" parent="1" vertex="1">
          <mxGeometry x="720" y="260" width="120" height="40" as="geometry" />
        </mxCell>
        <mxCell id="gzGk77P-xv0N86IO1BmV-66" value="" style="edgeStyle=orthogonalEdgeStyle;rounded=0;orthogonalLoop=1;jettySize=auto;html=1;" parent="1" source="gzGk77P-xv0N86IO1BmV-60" target="gzGk77P-xv0N86IO1BmV-61" edge="1">
          <mxGeometry relative="1" as="geometry" />
        </mxCell>
        <mxCell id="gzGk77P-xv0N86IO1BmV-60" value="вывод: &quot;Perimeter of triangle is: &quot; ct" style="rounded=0;whiteSpace=wrap;html=1;" parent="1" vertex="1">
          <mxGeometry x="720" y="380" width="120" height="40" as="geometry" />
        </mxCell>
        <mxCell id="gzGk77P-xv0N86IO1BmV-61" value="Конец" style="ellipse;whiteSpace=wrap;html=1;" parent="1" vertex="1">
          <mxGeometry x="720" y="440" width="120" height="80" as="geometry" />
        </mxCell>
        <mxCell id="gzGk77P-xv0N86IO1BmV-62" value="triangle(int k, l, m) {}" style="rounded=1;whiteSpace=wrap;html=1;" parent="1" vertex="1">
          <mxGeometry x="720" y="200" width="120" height="40" as="geometry" />
        </mxCell>
        <mxCell id="gzGk77P-xv0N86IO1BmV-63" value="" style="edgeStyle=orthogonalEdgeStyle;rounded=0;orthogonalLoop=1;jettySize=auto;html=1;" parent="1" source="gzGk77P-xv0N86IO1BmV-64" target="gzGk77P-xv0N86IO1BmV-60" edge="1">
          <mxGeometry relative="1" as="geometry" />
        </mxCell>
        <mxCell id="gzGk77P-xv0N86IO1BmV-64" value="return ct;" style="rounded=1;whiteSpace=wrap;html=1;" parent="1" vertex="1">
          <mxGeometry x="720" y="320" width="120" height="40" as="geometry" />
        </mxCell>
        <mxCell id="gzGk77P-xv0N86IO1BmV-65" value="" style="endArrow=classic;html=1;exitX=0.5;exitY=1;exitDx=0;exitDy=0;entryX=0.5;entryY=0;entryDx=0;entryDy=0;" parent="1" source="gzGk77P-xv0N86IO1BmV-62" target="gzGk77P-xv0N86IO1BmV-58" edge="1">
          <mxGeometry width="50" height="50" relative="1" as="geometry">
            <mxPoint x="850" y="280" as="sourcePoint" />
            <mxPoint x="900" y="230" as="targetPoint" />
          </mxGeometry>
        </mxCell>
        <mxCell id="gzGk77P-xv0N86IO1BmV-67" value="" style="edgeStyle=orthogonalEdgeStyle;rounded=0;orthogonalLoop=1;jettySize=auto;html=1;" parent="1" source="gzGk77P-xv0N86IO1BmV-68" target="gzGk77P-xv0N86IO1BmV-69" edge="1">
          <mxGeometry relative="1" as="geometry" />
        </mxCell>
        <mxCell id="gzGk77P-xv0N86IO1BmV-68" value="Начало" style="ellipse;whiteSpace=wrap;html=1;" parent="1" vertex="1">
          <mxGeometry x="920" y="40" width="120" height="80" as="geometry" />
        </mxCell>
        <mxCell id="gzGk77P-xv0N86IO1BmV-71" value="" style="edgeStyle=orthogonalEdgeStyle;rounded=0;orthogonalLoop=1;jettySize=auto;html=1;" parent="1" source="gzGk77P-xv0N86IO1BmV-69" target="gzGk77P-xv0N86IO1BmV-70" edge="1">
          <mxGeometry relative="1" as="geometry" />
        </mxCell>
        <mxCell id="gzGk77P-xv0N86IO1BmV-69" value="ввод k,l;" style="rounded=0;whiteSpace=wrap;html=1;" parent="1" vertex="1">
          <mxGeometry x="920" y="140" width="120" height="40" as="geometry" />
        </mxCell>
        <mxCell id="gzGk77P-xv0N86IO1BmV-70" value="create_mas(int k, l) {}" style="rounded=1;whiteSpace=wrap;html=1;" parent="1" vertex="1">
          <mxGeometry x="920" y="200" width="120" height="40" as="geometry" />
        </mxCell>
        <mxCell id="gzGk77P-xv0N86IO1BmV-76" value="" style="edgeStyle=orthogonalEdgeStyle;rounded=0;orthogonalLoop=1;jettySize=auto;html=1;" parent="1" source="gzGk77P-xv0N86IO1BmV-72" target="gzGk77P-xv0N86IO1BmV-74" edge="1">
          <mxGeometry relative="1" as="geometry" />
        </mxCell>
        <mxCell id="gzGk77P-xv0N86IO1BmV-72" value="&lt;pre&gt;&lt;font face=&quot;Helvetica&quot;&gt;&lt;span style=&quot;background-color: rgb(255 , 255 , 255)&quot;&gt;int* mas = new int[l-k];&lt;br&gt;int sp, ct;&lt;br&gt;bool ad;&lt;br&gt;ct = k;&lt;/span&gt;&lt;/font&gt;&lt;/pre&gt;" style="rounded=0;whiteSpace=wrap;html=1;" parent="1" vertex="1">
          <mxGeometry x="920" y="260" width="120" height="80" as="geometry" />
        </mxCell>
        <mxCell id="gzGk77P-xv0N86IO1BmV-73" value="" style="endArrow=classic;html=1;exitX=0.5;exitY=1;exitDx=0;exitDy=0;entryX=0.5;entryY=0;entryDx=0;entryDy=0;" parent="1" source="gzGk77P-xv0N86IO1BmV-70" target="gzGk77P-xv0N86IO1BmV-72" edge="1">
          <mxGeometry width="50" height="50" relative="1" as="geometry">
            <mxPoint x="1070" y="330" as="sourcePoint" />
            <mxPoint x="1120" y="280" as="targetPoint" />
          </mxGeometry>
        </mxCell>
        <mxCell id="gzGk77P-xv0N86IO1BmV-78" value="" style="edgeStyle=orthogonalEdgeStyle;rounded=0;orthogonalLoop=1;jettySize=auto;html=1;" parent="1" source="gzGk77P-xv0N86IO1BmV-74" target="gzGk77P-xv0N86IO1BmV-77" edge="1">
          <mxGeometry relative="1" as="geometry" />
        </mxCell>
        <mxCell id="gzGk77P-xv0N86IO1BmV-74" value="&lt;font style=&quot;font-size: 12px&quot;&gt;&lt;span style=&quot;line-height: 24.8208px ; font-family: &amp;#34;calibri&amp;#34; , &amp;#34;calibri_embeddedfont&amp;#34; , &amp;#34;calibri_msfontservice&amp;#34; , sans-serif&quot; class=&quot;TextRun SCXW25673797 BCX2&quot; lang=&quot;RU-RU&quot;&gt;&lt;span class=&quot;NormalTextRun SCXW25673797 BCX2&quot;&gt;&lt;/span&gt;&lt;span class=&quot;SpellingError SCXW25673797 BCX2&quot;&gt;for&lt;/span&gt;&lt;span class=&quot;NormalTextRun SCXW25673797 BCX2&quot;&gt; &lt;/span&gt;&lt;span class=&quot;NormalTextRun SCXW25673797 BCX2&quot;&gt;(&lt;/span&gt;&lt;span class=&quot;SpellingError SCXW25673797 BCX2&quot;&gt;int&lt;/span&gt;&lt;span class=&quot;NormalTextRun SCXW25673797 BCX2&quot;&gt; &lt;/span&gt;&lt;span class=&quot;NormalTextRun SCXW25673797 BCX2&quot;&gt;i=&lt;/span&gt;&lt;span class=&quot;NormalTextRun SCXW25673797 BCX2&quot;&gt;k&lt;/span&gt;&lt;span class=&quot;NormalTextRun SCXW25673797 BCX2&quot;&gt;; &lt;/span&gt;&lt;span class=&quot;ContextualSpellingAndGrammarError SCXW25673797 BCX2&quot;&gt;i&amp;lt;&lt;/span&gt;&lt;span class=&quot;NormalTextRun SCXW25673797 BCX2&quot;&gt;=l&lt;/span&gt;&lt;span class=&quot;NormalTextRun SCXW25673797 BCX2&quot;&gt;; &lt;/span&gt;&lt;span class=&quot;NormalTextRun SCXW25673797 BCX2&quot;&gt;i+&lt;/span&gt;&lt;span class=&quot;ContextualSpellingAndGrammarError SCXW25673797 BCX2&quot;&gt;+){&lt;/span&gt;&lt;/span&gt;&lt;/font&gt;&lt;span class=&quot;LineBreakBlob BlobObject DragDrop SCXW25673797 BCX2&quot; style=&quot;line-height: 24.8208px ; font-family: &amp;#34;wordvisicarriagereturn_msfontservice&amp;#34; , &amp;#34;calibri&amp;#34; , &amp;#34;calibri_embeddedfont&amp;#34; , &amp;#34;calibri_msfontservice&amp;#34; , sans-serif&quot;&gt;&lt;font style=&quot;font-size: 12px&quot;&gt;&lt;span class=&quot;SCXW25673797 BCX2&quot;&gt; &lt;/span&gt;&lt;/font&gt;}&lt;br class=&quot;SCXW25673797 BCX2&quot;&gt;&lt;/span&gt;&lt;span style=&quot;line-height: 24.8208px ; font-family: &amp;#34;calibri&amp;#34; , &amp;#34;calibri_embeddedfont&amp;#34; , &amp;#34;calibri_msfontservice&amp;#34; , sans-serif&quot; class=&quot;TextRun SCXW25673797 BCX2&quot; lang=&quot;RU-RU&quot;&gt;&lt;span class=&quot;NormalTextRun SCXW25673797 BCX2&quot;&gt;&lt;/span&gt;&lt;/span&gt;" style="shape=loopLimit;whiteSpace=wrap;html=1;" parent="1" vertex="1">
          <mxGeometry x="920" y="360" width="120" height="40" as="geometry" />
        </mxCell>
        <mxCell id="gzGk77P-xv0N86IO1BmV-80" value="" style="edgeStyle=orthogonalEdgeStyle;rounded=0;orthogonalLoop=1;jettySize=auto;html=1;" parent="1" source="gzGk77P-xv0N86IO1BmV-77" target="gzGk77P-xv0N86IO1BmV-79" edge="1">
          <mxGeometry relative="1" as="geometry" />
        </mxCell>
        <mxCell id="gzGk77P-xv0N86IO1BmV-77" value="&lt;div&gt;&lt;font style=&quot;font-size: 12px&quot;&gt;&lt;span style=&quot;line-height: 24.8208px ; font-family: &amp;#34;calibri&amp;#34; , &amp;#34;calibri_embeddedfont&amp;#34; , &amp;#34;calibri_msfontservice&amp;#34; , sans-serif&quot; class=&quot;TextRun SCXW25673797 BCX2&quot; lang=&quot;RU-RU&quot;&gt;&lt;span class=&quot;NormalTextRun SCXW25673797 BCX2&quot;&gt;&lt;/span&gt;&lt;span class=&quot;SpellingError SCXW25673797 BCX2&quot;&gt;for&lt;/span&gt;&lt;span class=&quot;NormalTextRun SCXW25673797 BCX2&quot;&gt; &lt;/span&gt;&lt;span class=&quot;NormalTextRun SCXW25673797 BCX2&quot;&gt;(&lt;/span&gt;&lt;span class=&quot;SpellingError SCXW25673797 BCX2&quot;&gt;int&lt;/span&gt;&lt;span class=&quot;NormalTextRun SCXW25673797 BCX2&quot;&gt; &lt;/span&gt;&lt;span class=&quot;NormalTextRun SCXW25673797 BCX2&quot;&gt;j=&lt;/span&gt;&lt;span class=&quot;NormalTextRun SCXW25673797 BCX2&quot;&gt;i&lt;/span&gt;&lt;span class=&quot;NormalTextRun SCXW25673797 BCX2&quot;&gt;; &lt;/span&gt;&lt;span class=&quot;ContextualSpellingAndGrammarError SCXW25673797 BCX2&quot;&gt;j!&lt;/span&gt;&lt;span class=&quot;NormalTextRun SCXW25673797 BCX2&quot;&gt;=0&lt;/span&gt;&lt;span class=&quot;NormalTextRun SCXW25673797 BCX2&quot;&gt;; &lt;/span&gt;&lt;span class=&quot;NormalTextRun SCXW25673797 BCX2&quot;&gt;&lt;br&gt;&lt;/span&gt;&lt;/span&gt;&lt;/font&gt;&lt;/div&gt;&lt;div&gt;&lt;font style=&quot;font-size: 12px&quot;&gt;&lt;span style=&quot;line-height: 24.8208px ; font-family: &amp;#34;calibri&amp;#34; , &amp;#34;calibri_embeddedfont&amp;#34; , &amp;#34;calibri_msfontservice&amp;#34; , sans-serif&quot; class=&quot;TextRun SCXW25673797 BCX2&quot; lang=&quot;RU-RU&quot;&gt;&lt;span class=&quot;NormalTextRun SCXW25673797 BCX2&quot;&gt;j =&amp;nbsp; j / 10&lt;/span&gt;&lt;span class=&quot;ContextualSpellingAndGrammarError SCXW25673797 BCX2&quot;&gt;){&lt;/span&gt;&lt;/span&gt;&lt;/font&gt;&lt;span class=&quot;LineBreakBlob BlobObject DragDrop SCXW25673797 BCX2&quot; style=&quot;line-height: 24.8208px ; font-family: &amp;#34;wordvisicarriagereturn_msfontservice&amp;#34; , &amp;#34;calibri&amp;#34; , &amp;#34;calibri_embeddedfont&amp;#34; , &amp;#34;calibri_msfontservice&amp;#34; , sans-serif&quot;&gt;&lt;font style=&quot;font-size: 12px&quot;&gt;&lt;span class=&quot;SCXW25673797 BCX2&quot;&gt; &lt;/span&gt;&lt;/font&gt;}&lt;/span&gt;&lt;/div&gt;&lt;div&gt;&lt;span class=&quot;LineBreakBlob BlobObject DragDrop SCXW25673797 BCX2&quot; style=&quot;line-height: 24.8208px ; font-family: &amp;#34;wordvisicarriagereturn_msfontservice&amp;#34; , &amp;#34;calibri&amp;#34; , &amp;#34;calibri_embeddedfont&amp;#34; , &amp;#34;calibri_msfontservice&amp;#34; , sans-serif&quot;&gt;&lt;/span&gt;&lt;/div&gt;&lt;span style=&quot;line-height: 24.8208px ; font-family: &amp;#34;calibri&amp;#34; , &amp;#34;calibri_embeddedfont&amp;#34; , &amp;#34;calibri_msfontservice&amp;#34; , sans-serif&quot; class=&quot;TextRun SCXW25673797 BCX2&quot; lang=&quot;RU-RU&quot;&gt;&lt;span class=&quot;NormalTextRun SCXW25673797 BCX2&quot;&gt;&lt;/span&gt;&lt;/span&gt;" style="shape=loopLimit;whiteSpace=wrap;html=1;" parent="1" vertex="1">
          <mxGeometry x="920" y="420" width="120" height="40" as="geometry" />
        </mxCell>
        <mxCell id="gzGk77P-xv0N86IO1BmV-122" style="edgeStyle=orthogonalEdgeStyle;rounded=0;orthogonalLoop=1;jettySize=auto;html=1;entryX=0.5;entryY=0;entryDx=0;entryDy=0;" parent="1" source="gzGk77P-xv0N86IO1BmV-79" target="gzGk77P-xv0N86IO1BmV-107" edge="1">
          <mxGeometry relative="1" as="geometry">
            <Array as="points">
              <mxPoint x="980" y="540" />
              <mxPoint x="1060" y="540" />
              <mxPoint x="1060" y="20" />
              <mxPoint x="1160" y="20" />
            </Array>
          </mxGeometry>
        </mxCell>
        <mxCell id="gzGk77P-xv0N86IO1BmV-79" value="sp = i % 10;" style="rounded=0;whiteSpace=wrap;html=1;" parent="1" vertex="1">
          <mxGeometry x="920" y="480" width="120" height="40" as="geometry" />
        </mxCell>
        <mxCell id="gzGk77P-xv0N86IO1BmV-106" value="Yes" style="edgeStyle=orthogonalEdgeStyle;rounded=0;orthogonalLoop=1;jettySize=auto;html=1;" parent="1" source="gzGk77P-xv0N86IO1BmV-107" target="gzGk77P-xv0N86IO1BmV-109" edge="1">
          <mxGeometry x="-0.0089" relative="1" as="geometry">
            <mxPoint as="offset" />
          </mxGeometry>
        </mxCell>
        <mxCell id="gzGk77P-xv0N86IO1BmV-121" style="edgeStyle=orthogonalEdgeStyle;rounded=0;orthogonalLoop=1;jettySize=auto;html=1;entryX=0.5;entryY=0;entryDx=0;entryDy=0;" parent="1" source="gzGk77P-xv0N86IO1BmV-107" target="gzGk77P-xv0N86IO1BmV-110" edge="1">
          <mxGeometry relative="1" as="geometry">
            <Array as="points">
              <mxPoint x="1260" y="119" />
              <mxPoint x="1260" y="150" />
            </Array>
          </mxGeometry>
        </mxCell>
        <mxCell id="gzGk77P-xv0N86IO1BmV-107" value="&lt;pre&gt;&lt;font face=&quot;Helvetica&quot;&gt;&lt;span style=&quot;background-color: transparent&quot;&gt;if ((sp != 0) &amp;amp;&amp;amp;&lt;br&gt; ((i % sp) == 0)) {}&lt;/span&gt;&lt;/font&gt;&lt;/pre&gt;" style="rhombus;whiteSpace=wrap;html=1;" parent="1" vertex="1">
          <mxGeometry x="1080.93" y="40" width="158.75" height="158.75" as="geometry" />
        </mxCell>
        <mxCell id="gzGk77P-xv0N86IO1BmV-108" value="" style="edgeStyle=orthogonalEdgeStyle;rounded=0;orthogonalLoop=1;jettySize=auto;html=1;" parent="1" source="gzGk77P-xv0N86IO1BmV-109" target="gzGk77P-xv0N86IO1BmV-112" edge="1">
          <mxGeometry relative="1" as="geometry" />
        </mxCell>
        <mxCell id="gzGk77P-xv0N86IO1BmV-109" value="ad = true;" style="rounded=0;whiteSpace=wrap;html=1;" parent="1" vertex="1">
          <mxGeometry x="1101.55" y="260" width="120" height="40" as="geometry" />
        </mxCell>
        <mxCell id="gzGk77P-xv0N86IO1BmV-124" style="edgeStyle=orthogonalEdgeStyle;rounded=0;orthogonalLoop=1;jettySize=auto;html=1;" parent="1" source="gzGk77P-xv0N86IO1BmV-110" target="gzGk77P-xv0N86IO1BmV-109" edge="1">
          <mxGeometry relative="1" as="geometry">
            <Array as="points">
              <mxPoint x="1261" y="240" />
              <mxPoint x="1162" y="240" />
            </Array>
          </mxGeometry>
        </mxCell>
        <mxCell id="gzGk77P-xv0N86IO1BmV-110" value="ad = false;" style="rounded=0;whiteSpace=wrap;html=1;" parent="1" vertex="1">
          <mxGeometry x="1200.62" y="180" width="120" height="40" as="geometry" />
        </mxCell>
        <mxCell id="gzGk77P-xv0N86IO1BmV-111" value="" style="edgeStyle=orthogonalEdgeStyle;rounded=0;orthogonalLoop=1;jettySize=auto;html=1;" parent="1" source="gzGk77P-xv0N86IO1BmV-112" target="gzGk77P-xv0N86IO1BmV-115" edge="1">
          <mxGeometry relative="1" as="geometry" />
        </mxCell>
        <mxCell id="gzGk77P-xv0N86IO1BmV-112" value="" style="shape=loopLimit;whiteSpace=wrap;html=1;flipH=0;flipV=1;" parent="1" vertex="1">
          <mxGeometry x="1101.55" y="320" width="119.37" height="40" as="geometry" />
        </mxCell>
        <mxCell id="gzGk77P-xv0N86IO1BmV-113" value="Yes" style="edgeStyle=orthogonalEdgeStyle;rounded=0;orthogonalLoop=1;jettySize=auto;html=1;entryX=0.5;entryY=0;entryDx=0;entryDy=0;" parent="1" source="gzGk77P-xv0N86IO1BmV-115" target="gzGk77P-xv0N86IO1BmV-117" edge="1">
          <mxGeometry relative="1" as="geometry">
            <Array as="points">
              <mxPoint x="1280.55" y="460" />
            </Array>
          </mxGeometry>
        </mxCell>
        <mxCell id="gzGk77P-xv0N86IO1BmV-114" value="No" style="edgeStyle=orthogonalEdgeStyle;rounded=0;orthogonalLoop=1;jettySize=auto;html=1;" parent="1" source="gzGk77P-xv0N86IO1BmV-115" edge="1">
          <mxGeometry x="0.0051" relative="1" as="geometry">
            <mxPoint x="1161.55" y="619.9999999999998" as="targetPoint" />
            <mxPoint as="offset" />
          </mxGeometry>
        </mxCell>
        <mxCell id="gzGk77P-xv0N86IO1BmV-115" value="if (ad) {}" style="rhombus;whiteSpace=wrap;html=1;" parent="1" vertex="1">
          <mxGeometry x="1080.93" y="380" width="160.62" height="160.62" as="geometry" />
        </mxCell>
        <mxCell id="gzGk77P-xv0N86IO1BmV-116" style="edgeStyle=orthogonalEdgeStyle;rounded=0;orthogonalLoop=1;jettySize=auto;html=1;entryX=0.5;entryY=0;entryDx=0;entryDy=0;" parent="1" source="gzGk77P-xv0N86IO1BmV-117" edge="1">
          <mxGeometry relative="1" as="geometry">
            <mxPoint x="1161.55" y="619.9999999999998" as="targetPoint" />
            <Array as="points">
              <mxPoint x="1280.55" y="600" />
              <mxPoint x="1161.55" y="600" />
            </Array>
          </mxGeometry>
        </mxCell>
        <mxCell id="gzGk77P-xv0N86IO1BmV-117" value="&lt;pre&gt;&lt;font face=&quot;Helvetica&quot;&gt;&lt;span style=&quot;background-color: transparent&quot;&gt;mas[ct] = i;&lt;br&gt;std::cout &amp;lt;&amp;lt; &lt;br&gt;mas[ct] &amp;lt;&amp;lt; &quot; &quot;;&lt;br&gt;ct++;&lt;/span&gt;&lt;/font&gt;&lt;/pre&gt;" style="rounded=0;whiteSpace=wrap;html=1;" parent="1" vertex="1">
          <mxGeometry x="1220.9199999999998" y="500" width="120" height="60" as="geometry" />
        </mxCell>
        <mxCell id="gzGk77P-xv0N86IO1BmV-118" value="" style="edgeStyle=orthogonalEdgeStyle;rounded=0;orthogonalLoop=1;jettySize=auto;html=1;" parent="1" source="gzGk77P-xv0N86IO1BmV-119" target="gzGk77P-xv0N86IO1BmV-120" edge="1">
          <mxGeometry relative="1" as="geometry" />
        </mxCell>
        <mxCell id="gzGk77P-xv0N86IO1BmV-119" value="" style="shape=loopLimit;whiteSpace=wrap;html=1;flipH=0;flipV=1;" parent="1" vertex="1">
          <mxGeometry x="1101.55" y="620" width="119.37" height="40" as="geometry" />
        </mxCell>
        <mxCell id="gzGk77P-xv0N86IO1BmV-120" value="Конец" style="ellipse;whiteSpace=wrap;html=1;" parent="1" vertex="1">
          <mxGeometry x="1101.55" y="680" width="120" height="80" as="geometry" />
        </mxCell>
        <mxCell id="gzGk77P-xv0N86IO1BmV-127" value="" style="edgeStyle=orthogonalEdgeStyle;rounded=0;orthogonalLoop=1;jettySize=auto;html=1;" parent="1" source="gzGk77P-xv0N86IO1BmV-125" target="gzGk77P-xv0N86IO1BmV-126" edge="1">
          <mxGeometry relative="1" as="geometry" />
        </mxCell>
        <mxCell id="gzGk77P-xv0N86IO1BmV-125" value="Начало" style="ellipse;whiteSpace=wrap;html=1;" parent="1" vertex="1">
          <mxGeometry x="1400" y="40" width="120" height="80" as="geometry" />
        </mxCell>
        <mxCell id="gzGk77P-xv0N86IO1BmV-129" value="" style="edgeStyle=orthogonalEdgeStyle;rounded=0;orthogonalLoop=1;jettySize=auto;html=1;" parent="1" source="gzGk77P-xv0N86IO1BmV-126" target="gzGk77P-xv0N86IO1BmV-128" edge="1">
          <mxGeometry relative="1" as="geometry" />
        </mxCell>
        <mxCell id="gzGk77P-xv0N86IO1BmV-126" value="ввод string;" style="rounded=0;whiteSpace=wrap;html=1;" parent="1" vertex="1">
          <mxGeometry x="1400" y="140" width="120" height="40" as="geometry" />
        </mxCell>
        <mxCell id="gzGk77P-xv0N86IO1BmV-131" value="" style="edgeStyle=orthogonalEdgeStyle;rounded=0;orthogonalLoop=1;jettySize=auto;html=1;" parent="1" source="gzGk77P-xv0N86IO1BmV-128" target="gzGk77P-xv0N86IO1BmV-130" edge="1">
          <mxGeometry relative="1" as="geometry" />
        </mxCell>
        <mxCell id="gzGk77P-xv0N86IO1BmV-128" value="&lt;font style=&quot;font-size: 12px&quot;&gt;&lt;span style=&quot;line-height: 24.8208px ; font-family: &amp;#34;calibri&amp;#34; , &amp;#34;calibri_embeddedfont&amp;#34; , &amp;#34;calibri_msfontservice&amp;#34; , sans-serif&quot; class=&quot;TextRun SCXW25673797 BCX2&quot; lang=&quot;RU-RU&quot;&gt;&lt;span class=&quot;NormalTextRun SCXW25673797 BCX2&quot;&gt;&lt;/span&gt;&lt;span class=&quot;SpellingError SCXW25673797 BCX2&quot;&gt;for&lt;/span&gt;&lt;span class=&quot;NormalTextRun SCXW25673797 BCX2&quot;&gt; &lt;/span&gt;&lt;span class=&quot;NormalTextRun SCXW25673797 BCX2&quot;&gt;(&lt;/span&gt;&lt;span class=&quot;SpellingError SCXW25673797 BCX2&quot;&gt;int&lt;/span&gt;&lt;span class=&quot;NormalTextRun SCXW25673797 BCX2&quot;&gt; &lt;/span&gt;&lt;span class=&quot;NormalTextRun SCXW25673797 BCX2&quot;&gt;i=&lt;/span&gt;&lt;span class=&quot;NormalTextRun SCXW25673797 BCX2&quot;&gt;0&lt;/span&gt;&lt;span class=&quot;NormalTextRun SCXW25673797 BCX2&quot;&gt;; &lt;/span&gt;&lt;span class=&quot;ContextualSpellingAndGrammarError SCXW25673797 BCX2&quot;&gt;i&amp;lt;&lt;/span&gt;&lt;span class=&quot;NormalTextRun SCXW25673797 BCX2&quot;&gt;=length.string()&lt;/span&gt;&lt;span class=&quot;NormalTextRun SCXW25673797 BCX2&quot;&gt;; &lt;/span&gt;&lt;span class=&quot;NormalTextRun SCXW25673797 BCX2&quot;&gt;i+&lt;/span&gt;&lt;span class=&quot;ContextualSpellingAndGrammarError SCXW25673797 BCX2&quot;&gt;+){&lt;/span&gt;&lt;/span&gt;&lt;/font&gt;&lt;span class=&quot;LineBreakBlob BlobObject DragDrop SCXW25673797 BCX2&quot; style=&quot;line-height: 24.8208px ; font-family: &amp;#34;wordvisicarriagereturn_msfontservice&amp;#34; , &amp;#34;calibri&amp;#34; , &amp;#34;calibri_embeddedfont&amp;#34; , &amp;#34;calibri_msfontservice&amp;#34; , sans-serif&quot;&gt;&lt;font style=&quot;font-size: 12px&quot;&gt;&lt;span class=&quot;SCXW25673797 BCX2&quot;&gt; &lt;/span&gt;&lt;/font&gt;}&lt;br class=&quot;SCXW25673797 BCX2&quot;&gt;&lt;/span&gt;&lt;span style=&quot;line-height: 24.8208px ; font-family: &amp;#34;calibri&amp;#34; , &amp;#34;calibri_embeddedfont&amp;#34; , &amp;#34;calibri_msfontservice&amp;#34; , sans-serif&quot; class=&quot;TextRun SCXW25673797 BCX2&quot; lang=&quot;RU-RU&quot;&gt;&lt;span class=&quot;NormalTextRun SCXW25673797 BCX2&quot;&gt;&lt;/span&gt;&lt;/span&gt;" style="shape=loopLimit;whiteSpace=wrap;html=1;" parent="1" vertex="1">
          <mxGeometry x="1400" y="200" width="120" height="40" as="geometry" />
        </mxCell>
        <mxCell id="gzGk77P-xv0N86IO1BmV-133" value="" style="edgeStyle=orthogonalEdgeStyle;rounded=0;orthogonalLoop=1;jettySize=auto;html=1;" parent="1" source="gzGk77P-xv0N86IO1BmV-130" target="gzGk77P-xv0N86IO1BmV-132" edge="1">
          <mxGeometry relative="1" as="geometry" />
        </mxCell>
        <mxCell id="gzGk77P-xv0N86IO1BmV-136" value="Yes" style="edgeLabel;html=1;align=center;verticalAlign=middle;resizable=0;points=[];" parent="gzGk77P-xv0N86IO1BmV-133" vertex="1" connectable="0">
          <mxGeometry x="-0.1155" relative="1" as="geometry">
            <mxPoint as="offset" />
          </mxGeometry>
        </mxCell>
        <mxCell id="gzGk77P-xv0N86IO1BmV-135" style="edgeStyle=orthogonalEdgeStyle;rounded=0;orthogonalLoop=1;jettySize=auto;html=1;entryX=0.5;entryY=0;entryDx=0;entryDy=0;" parent="1" source="gzGk77P-xv0N86IO1BmV-130" target="gzGk77P-xv0N86IO1BmV-134" edge="1">
          <mxGeometry relative="1" as="geometry">
            <Array as="points">
              <mxPoint x="1560" y="340" />
            </Array>
          </mxGeometry>
        </mxCell>
        <mxCell id="gzGk77P-xv0N86IO1BmV-137" value="No" style="edgeLabel;html=1;align=center;verticalAlign=middle;resizable=0;points=[];" parent="gzGk77P-xv0N86IO1BmV-135" vertex="1" connectable="0">
          <mxGeometry x="-0.2038" y="1" relative="1" as="geometry">
            <mxPoint as="offset" />
          </mxGeometry>
        </mxCell>
        <mxCell id="gzGk77P-xv0N86IO1BmV-130" value="&lt;div&gt;&lt;font face=&quot;Helvetica&quot;&gt;&lt;span style=&quot;color: rgb(0 , 0 , 0) ; line-height: 23.7417px&quot; class=&quot;TextRun  BCX2 SCXW85182869&quot; lang=&quot;RU-RU&quot;&gt;&lt;span class=&quot;NormalTextRun  BCX2 SCXW85182869&quot;&gt;if (&lt;/span&gt;&lt;span class=&quot;SpellingError  BCX2 SCXW85182869&quot;&gt;string&lt;/span&gt;&lt;span class=&quot;NormalTextRun  BCX2 SCXW85182869&quot;&gt;[i] == &#39; &#39;) {}&lt;/span&gt;&lt;/span&gt;&lt;/font&gt;&lt;/div&gt;&lt;div&gt;&lt;font face=&quot;Helvetica&quot;&gt;&lt;span style=&quot;color: rgb(0 , 0 , 0) ; line-height: 23.7417px&quot; class=&quot;TextRun  BCX2 SCXW85182869&quot; lang=&quot;RU-RU&quot;&gt;&lt;span class=&quot;NormalTextRun  BCX2 SCXW85182869&quot;&gt;&lt;/span&gt;&lt;/span&gt;&lt;/font&gt;&lt;/div&gt;" style="rhombus;whiteSpace=wrap;html=1;" parent="1" vertex="1">
          <mxGeometry x="1379.69" y="260" width="160.62" height="160.62" as="geometry" />
        </mxCell>
        <mxCell id="gzGk77P-xv0N86IO1BmV-141" style="edgeStyle=orthogonalEdgeStyle;rounded=0;orthogonalLoop=1;jettySize=auto;html=1;entryX=0.5;entryY=0;entryDx=0;entryDy=0;" parent="1" source="gzGk77P-xv0N86IO1BmV-132" target="gzGk77P-xv0N86IO1BmV-140" edge="1">
          <mxGeometry relative="1" as="geometry" />
        </mxCell>
        <mxCell id="gzGk77P-xv0N86IO1BmV-132" value="Вывод &quot;Tab&quot;;" style="rounded=0;whiteSpace=wrap;html=1;" parent="1" vertex="1">
          <mxGeometry x="1400" y="500.62" width="120" height="40" as="geometry" />
        </mxCell>
        <mxCell id="gzGk77P-xv0N86IO1BmV-139" value="" style="edgeStyle=orthogonalEdgeStyle;rounded=0;orthogonalLoop=1;jettySize=auto;html=1;" parent="1" source="gzGk77P-xv0N86IO1BmV-134" target="gzGk77P-xv0N86IO1BmV-138" edge="1">
          <mxGeometry relative="1" as="geometry" />
        </mxCell>
        <mxCell id="gzGk77P-xv0N86IO1BmV-134" value="&lt;div&gt;&lt;font style=&quot;font-size: 12px&quot; face=&quot;Helvetica&quot;&gt;&lt;span style=&quot;color: rgb(0 , 0 , 0) ; line-height: 23.7417px&quot; class=&quot;TextRun  BCX2 SCXW85182869&quot; lang=&quot;RU-RU&quot;&gt;&lt;span class=&quot;NormalTextRun  BCX2 SCXW85182869&quot;&gt;&lt;/span&gt;&lt;span class=&quot;SpellingError  BCX2 SCXW85182869&quot;&gt;&lt;/span&gt;&lt;span class=&quot;NormalTextRun  BCX2 SCXW85182869&quot;&gt;&lt;/span&gt;&lt;span class=&quot;SpellingError  BCX2 SCXW85182869&quot;&gt;if&lt;/span&gt;&lt;span class=&quot;NormalTextRun  BCX2 SCXW85182869&quot;&gt; &lt;/span&gt;&lt;span class=&quot;ContextualSpellingAndGrammarError  BCX2 SCXW85182869&quot;&gt;(!(&lt;/span&gt;&lt;span class=&quot;NormalTextRun  BCX2 SCXW85182869&quot;&gt;(&lt;/span&gt;&lt;span class=&quot;SpellingError  BCX2 SCXW85182869&quot;&gt;string&lt;/span&gt;&lt;span class=&quot;NormalTextRun  BCX2 SCXW85182869&quot;&gt;[i] == &#39;.&#39;)&lt;/span&gt;&lt;/span&gt;&lt;/font&gt;&lt;/div&gt;&lt;div&gt;&lt;font style=&quot;font-size: 12px&quot; face=&quot;Helvetica&quot;&gt;&lt;span style=&quot;color: rgb(0 , 0 , 0) ; line-height: 23.7417px&quot; class=&quot;TextRun  BCX2 SCXW85182869&quot; lang=&quot;RU-RU&quot;&gt;&lt;span class=&quot;NormalTextRun  BCX2 SCXW85182869&quot;&gt; || (&lt;/span&gt;&lt;span class=&quot;SpellingError  BCX2 SCXW85182869&quot;&gt;string&lt;/span&gt;&lt;span class=&quot;NormalTextRun  BCX2 SCXW85182869&quot;&gt;[i] == &#39;!&#39;) ||&lt;/span&gt;&lt;/span&gt;&lt;/font&gt;&lt;/div&gt;&lt;div&gt;&lt;font style=&quot;font-size: 12px&quot; face=&quot;Helvetica&quot;&gt;&lt;span style=&quot;color: rgb(0 , 0 , 0) ; line-height: 23.7417px&quot; class=&quot;TextRun  BCX2 SCXW85182869&quot; lang=&quot;RU-RU&quot;&gt;&lt;span class=&quot;NormalTextRun  BCX2 SCXW85182869&quot;&gt;(&lt;/span&gt;&lt;span class=&quot;SpellingError  BCX2 SCXW85182869&quot;&gt;string&lt;/span&gt;&lt;span class=&quot;NormalTextRun  BCX2 SCXW85182869&quot;&gt;[i] == &#39;?&#39;))) {}&lt;/span&gt;&lt;/span&gt;&lt;/font&gt;&lt;/div&gt;" style="rhombus;whiteSpace=wrap;html=1;" parent="1" vertex="1">
          <mxGeometry x="1480" y="360" width="160.62" height="160.62" as="geometry" />
        </mxCell>
        <mxCell id="gzGk77P-xv0N86IO1BmV-142" style="edgeStyle=orthogonalEdgeStyle;rounded=0;orthogonalLoop=1;jettySize=auto;html=1;entryX=0.5;entryY=0;entryDx=0;entryDy=0;" parent="1" source="gzGk77P-xv0N86IO1BmV-138" target="gzGk77P-xv0N86IO1BmV-140" edge="1">
          <mxGeometry relative="1" as="geometry">
            <Array as="points">
              <mxPoint x="1560" y="620" />
              <mxPoint x="1460" y="620" />
            </Array>
          </mxGeometry>
        </mxCell>
        <mxCell id="gzGk77P-xv0N86IO1BmV-138" value="Вывод string[i];" style="rounded=0;whiteSpace=wrap;html=1;" parent="1" vertex="1">
          <mxGeometry x="1500" y="560" width="120" height="40" as="geometry" />
        </mxCell>
        <mxCell id="gzGk77P-xv0N86IO1BmV-144" value="" style="edgeStyle=orthogonalEdgeStyle;rounded=0;orthogonalLoop=1;jettySize=auto;html=1;" parent="1" source="gzGk77P-xv0N86IO1BmV-140" target="gzGk77P-xv0N86IO1BmV-143" edge="1">
          <mxGeometry relative="1" as="geometry" />
        </mxCell>
        <mxCell id="gzGk77P-xv0N86IO1BmV-140" value="" style="shape=loopLimit;whiteSpace=wrap;html=1;flipH=0;flipV=1;" parent="1" vertex="1">
          <mxGeometry x="1400.63" y="640" width="119.37" height="40" as="geometry" />
        </mxCell>
        <mxCell id="gzGk77P-xv0N86IO1BmV-143" value="Конец" style="ellipse;whiteSpace=wrap;html=1;" parent="1" vertex="1">
          <mxGeometry x="1400" y="700" width="120" height="80" as="geometry" />
        </mxCell>
        <mxCell id="gzGk77P-xv0N86IO1BmV-147" value="" style="edgeStyle=orthogonalEdgeStyle;rounded=0;orthogonalLoop=1;jettySize=auto;html=1;" parent="1" source="gzGk77P-xv0N86IO1BmV-145" target="gzGk77P-xv0N86IO1BmV-146" edge="1">
          <mxGeometry relative="1" as="geometry" />
        </mxCell>
        <mxCell id="gzGk77P-xv0N86IO1BmV-145" value="Начало" style="ellipse;whiteSpace=wrap;html=1;" parent="1" vertex="1">
          <mxGeometry x="1720" y="40" width="120" height="80" as="geometry" />
        </mxCell>
        <mxCell id="gzGk77P-xv0N86IO1BmV-149" value="" style="edgeStyle=orthogonalEdgeStyle;rounded=0;orthogonalLoop=1;jettySize=auto;html=1;" parent="1" source="gzGk77P-xv0N86IO1BmV-146" target="gzGk77P-xv0N86IO1BmV-148" edge="1">
          <mxGeometry relative="1" as="geometry" />
        </mxCell>
        <mxCell id="gzGk77P-xv0N86IO1BmV-146" value="ввод mas1, mas2;" style="rounded=0;whiteSpace=wrap;html=1;" parent="1" vertex="1">
          <mxGeometry x="1720" y="140" width="120" height="40" as="geometry" />
        </mxCell>
        <mxCell id="gzGk77P-xv0N86IO1BmV-151" value="" style="edgeStyle=orthogonalEdgeStyle;rounded=0;orthogonalLoop=1;jettySize=auto;html=1;" parent="1" source="gzGk77P-xv0N86IO1BmV-148" target="gzGk77P-xv0N86IO1BmV-150" edge="1">
          <mxGeometry relative="1" as="geometry" />
        </mxCell>
        <mxCell id="gzGk77P-xv0N86IO1BmV-148" value="&lt;font style=&quot;font-size: 12px&quot;&gt;&lt;span style=&quot;line-height: 24.8208px ; font-family: &amp;#34;calibri&amp;#34; , &amp;#34;calibri_embeddedfont&amp;#34; , &amp;#34;calibri_msfontservice&amp;#34; , sans-serif&quot; class=&quot;TextRun SCXW25673797 BCX2&quot; lang=&quot;RU-RU&quot;&gt;&lt;span class=&quot;NormalTextRun SCXW25673797 BCX2&quot;&gt;&lt;/span&gt;&lt;span class=&quot;SpellingError SCXW25673797 BCX2&quot;&gt;for&lt;/span&gt;&lt;span class=&quot;NormalTextRun SCXW25673797 BCX2&quot;&gt; &lt;/span&gt;&lt;span class=&quot;NormalTextRun SCXW25673797 BCX2&quot;&gt;(&lt;/span&gt;&lt;span class=&quot;SpellingError SCXW25673797 BCX2&quot;&gt;int&lt;/span&gt;&lt;span class=&quot;NormalTextRun SCXW25673797 BCX2&quot;&gt; &lt;/span&gt;&lt;span class=&quot;NormalTextRun SCXW25673797 BCX2&quot;&gt;i=&lt;/span&gt;&lt;span class=&quot;NormalTextRun SCXW25673797 BCX2&quot;&gt;0&lt;/span&gt;&lt;span class=&quot;NormalTextRun SCXW25673797 BCX2&quot;&gt;; &lt;/span&gt;&lt;span class=&quot;ContextualSpellingAndGrammarError SCXW25673797 BCX2&quot;&gt;i&amp;lt;&lt;/span&gt;&lt;span class=&quot;NormalTextRun SCXW25673797 BCX2&quot;&gt;4&lt;/span&gt;&lt;span class=&quot;NormalTextRun SCXW25673797 BCX2&quot;&gt;; &lt;/span&gt;&lt;span class=&quot;NormalTextRun SCXW25673797 BCX2&quot;&gt;i+&lt;/span&gt;&lt;span class=&quot;ContextualSpellingAndGrammarError SCXW25673797 BCX2&quot;&gt;+){&lt;/span&gt;&lt;/span&gt;&lt;/font&gt;&lt;span class=&quot;LineBreakBlob BlobObject DragDrop SCXW25673797 BCX2&quot; style=&quot;line-height: 24.8208px ; font-family: &amp;#34;wordvisicarriagereturn_msfontservice&amp;#34; , &amp;#34;calibri&amp;#34; , &amp;#34;calibri_embeddedfont&amp;#34; , &amp;#34;calibri_msfontservice&amp;#34; , sans-serif&quot;&gt;&lt;font style=&quot;font-size: 12px&quot;&gt;&lt;span class=&quot;SCXW25673797 BCX2&quot;&gt; &lt;/span&gt;&lt;/font&gt;}&lt;br class=&quot;SCXW25673797 BCX2&quot;&gt;&lt;/span&gt;&lt;span style=&quot;line-height: 24.8208px ; font-family: &amp;#34;calibri&amp;#34; , &amp;#34;calibri_embeddedfont&amp;#34; , &amp;#34;calibri_msfontservice&amp;#34; , sans-serif&quot; class=&quot;TextRun SCXW25673797 BCX2&quot; lang=&quot;RU-RU&quot;&gt;&lt;span class=&quot;NormalTextRun SCXW25673797 BCX2&quot;&gt;&lt;/span&gt;&lt;/span&gt;" style="shape=loopLimit;whiteSpace=wrap;html=1;" parent="1" vertex="1">
          <mxGeometry x="1720" y="200" width="120" height="40" as="geometry" />
        </mxCell>
        <mxCell id="gzGk77P-xv0N86IO1BmV-153" value="Yes" style="edgeStyle=orthogonalEdgeStyle;rounded=0;orthogonalLoop=1;jettySize=auto;html=1;" parent="1" source="gzGk77P-xv0N86IO1BmV-150" target="gzGk77P-xv0N86IO1BmV-152" edge="1">
          <mxGeometry relative="1" as="geometry" />
        </mxCell>
        <mxCell id="gzGk77P-xv0N86IO1BmV-155" value="No" style="edgeStyle=orthogonalEdgeStyle;rounded=0;orthogonalLoop=1;jettySize=auto;html=1;entryX=0.5;entryY=0;entryDx=0;entryDy=0;" parent="1" source="gzGk77P-xv0N86IO1BmV-150" target="gzGk77P-xv0N86IO1BmV-154" edge="1">
          <mxGeometry relative="1" as="geometry">
            <Array as="points">
              <mxPoint x="1880" y="340" />
            </Array>
          </mxGeometry>
        </mxCell>
        <mxCell id="gzGk77P-xv0N86IO1BmV-150" value="&lt;pre&gt;&lt;font face=&quot;Helvetica&quot;&gt;&lt;span style=&quot;background-color: transparent&quot;&gt;if (mas1[i] &amp;lt;=&lt;br&gt; mas2[i]) {}&lt;/span&gt;&lt;/font&gt;&lt;/pre&gt;" style="rhombus;whiteSpace=wrap;html=1;" parent="1" vertex="1">
          <mxGeometry x="1699.69" y="260" width="160.62" height="160.62" as="geometry" />
        </mxCell>
        <mxCell id="gzGk77P-xv0N86IO1BmV-157" value="" style="edgeStyle=orthogonalEdgeStyle;rounded=0;orthogonalLoop=1;jettySize=auto;html=1;" parent="1" source="gzGk77P-xv0N86IO1BmV-152" target="gzGk77P-xv0N86IO1BmV-156" edge="1">
          <mxGeometry relative="1" as="geometry" />
        </mxCell>
        <mxCell id="gzGk77P-xv0N86IO1BmV-152" value="mas3[i] = mas1[i];" style="rounded=0;whiteSpace=wrap;html=1;" parent="1" vertex="1">
          <mxGeometry x="1720" y="460" width="120" height="40" as="geometry" />
        </mxCell>
        <mxCell id="gzGk77P-xv0N86IO1BmV-158" style="edgeStyle=orthogonalEdgeStyle;rounded=0;orthogonalLoop=1;jettySize=auto;html=1;" parent="1" source="gzGk77P-xv0N86IO1BmV-154" target="gzGk77P-xv0N86IO1BmV-156" edge="1">
          <mxGeometry relative="1" as="geometry">
            <Array as="points">
              <mxPoint x="1880" y="520" />
              <mxPoint x="1780" y="520" />
            </Array>
          </mxGeometry>
        </mxCell>
        <mxCell id="gzGk77P-xv0N86IO1BmV-154" value="mas3[i] = mas2[i];" style="rounded=0;whiteSpace=wrap;html=1;" parent="1" vertex="1">
          <mxGeometry x="1820" y="400" width="120" height="40" as="geometry" />
        </mxCell>
        <mxCell id="gzGk77P-xv0N86IO1BmV-160" value="" style="edgeStyle=orthogonalEdgeStyle;rounded=0;orthogonalLoop=1;jettySize=auto;html=1;" parent="1" source="gzGk77P-xv0N86IO1BmV-156" target="gzGk77P-xv0N86IO1BmV-159" edge="1">
          <mxGeometry relative="1" as="geometry" />
        </mxCell>
        <mxCell id="gzGk77P-xv0N86IO1BmV-156" value="" style="shape=loopLimit;whiteSpace=wrap;html=1;flipH=0;flipV=1;" parent="1" vertex="1">
          <mxGeometry x="1720.63" y="540" width="119.37" height="40" as="geometry" />
        </mxCell>
        <mxCell id="gzGk77P-xv0N86IO1BmV-162" value="" style="edgeStyle=orthogonalEdgeStyle;rounded=0;orthogonalLoop=1;jettySize=auto;html=1;" parent="1" source="gzGk77P-xv0N86IO1BmV-159" target="gzGk77P-xv0N86IO1BmV-161" edge="1">
          <mxGeometry relative="1" as="geometry" />
        </mxCell>
        <mxCell id="gzGk77P-xv0N86IO1BmV-159" value="Вывод mas[3];" style="rounded=0;whiteSpace=wrap;html=1;" parent="1" vertex="1">
          <mxGeometry x="1720" y="600" width="120" height="40" as="geometry" />
        </mxCell>
        <mxCell id="gzGk77P-xv0N86IO1BmV-161" value="Конец" style="ellipse;whiteSpace=wrap;html=1;" parent="1" vertex="1">
          <mxGeometry x="1720" y="660" width="120" height="80" as="geometry" />
        </mxCell>
        <mxCell id="m7cJXbedzszWfEb2ctCH-16" style="edgeStyle=orthogonalEdgeStyle;rounded=0;orthogonalLoop=1;jettySize=auto;html=1;" edge="1" parent="1" source="m7cJXbedzszWfEb2ctCH-2" target="m7cJXbedzszWfEb2ctCH-15">
          <mxGeometry relative="1" as="geometry" />
        </mxCell>
        <mxCell id="m7cJXbedzszWfEb2ctCH-2" value="Начало" style="ellipse;whiteSpace=wrap;html=1;" vertex="1" parent="1">
          <mxGeometry x="2020" y="40.62" width="120" height="80" as="geometry" />
        </mxCell>
        <mxCell id="m7cJXbedzszWfEb2ctCH-14" value="" style="edgeStyle=orthogonalEdgeStyle;rounded=0;orthogonalLoop=1;jettySize=auto;html=1;" edge="1" parent="1" source="m7cJXbedzszWfEb2ctCH-4" target="m7cJXbedzszWfEb2ctCH-10">
          <mxGeometry relative="1" as="geometry" />
        </mxCell>
        <mxCell id="m7cJXbedzszWfEb2ctCH-4" value="ввод k,l,m,n;" style="rounded=0;whiteSpace=wrap;html=1;" vertex="1" parent="1">
          <mxGeometry x="2020" y="200" width="120" height="40" as="geometry" />
        </mxCell>
        <mxCell id="m7cJXbedzszWfEb2ctCH-7" value="" style="edgeStyle=orthogonalEdgeStyle;rounded=0;orthogonalLoop=1;jettySize=auto;html=1;" edge="1" parent="1" source="m7cJXbedzszWfEb2ctCH-8" target="m7cJXbedzszWfEb2ctCH-9">
          <mxGeometry relative="1" as="geometry" />
        </mxCell>
        <mxCell id="m7cJXbedzszWfEb2ctCH-8" value="&lt;div&gt;вывод: &quot;Perimeter of triangle is: &quot; res.ct&lt;/div&gt;&lt;div&gt;&quot;Area of triangle is&quot; res.ct2&lt;br&gt;&lt;/div&gt;" style="rounded=0;whiteSpace=wrap;html=1;" vertex="1" parent="1">
          <mxGeometry x="2020" y="320.62" width="120" height="59.38" as="geometry" />
        </mxCell>
        <mxCell id="m7cJXbedzszWfEb2ctCH-9" value="Конец" style="ellipse;whiteSpace=wrap;html=1;" vertex="1" parent="1">
          <mxGeometry x="2020" y="400" width="120" height="80" as="geometry" />
        </mxCell>
        <mxCell id="m7cJXbedzszWfEb2ctCH-10" value="res = triangle(int k, l, m) {}" style="rounded=1;whiteSpace=wrap;html=1;" vertex="1" parent="1">
          <mxGeometry x="2020" y="260" width="120" height="40" as="geometry" />
        </mxCell>
        <mxCell id="m7cJXbedzszWfEb2ctCH-11" value="" style="edgeStyle=orthogonalEdgeStyle;rounded=0;orthogonalLoop=1;jettySize=auto;html=1;" edge="1" parent="1" target="m7cJXbedzszWfEb2ctCH-8">
          <mxGeometry relative="1" as="geometry">
            <mxPoint x="2080" y="300.6200000000001" as="sourcePoint" />
          </mxGeometry>
        </mxCell>
        <mxCell id="m7cJXbedzszWfEb2ctCH-18" style="edgeStyle=orthogonalEdgeStyle;rounded=0;orthogonalLoop=1;jettySize=auto;html=1;entryX=0.5;entryY=0;entryDx=0;entryDy=0;" edge="1" parent="1" source="m7cJXbedzszWfEb2ctCH-15" target="m7cJXbedzszWfEb2ctCH-4">
          <mxGeometry relative="1" as="geometry" />
        </mxCell>
        <mxCell id="m7cJXbedzszWfEb2ctCH-15" value="&lt;font style=&quot;font-size: 12px&quot; face=&quot;Helvetica&quot;&gt;&lt;span style=&quot;line-height: 23.7417px&quot; class=&quot;TextRun  BCX2 SCXW70851835&quot; lang=&quot;RU-RU&quot;&gt;&lt;span class=&quot;SpellingError  BCX2 SCXW70851835&quot;&gt;struct&lt;/span&gt;&lt;span class=&quot;NormalTextRun  BCX2 SCXW70851835&quot;&gt; &lt;/span&gt;&lt;span class=&quot;SpellingError  BCX2 SCXW70851835&quot;&gt;triang&lt;/span&gt;&lt;span class=&quot;NormalTextRun  BCX2 SCXW70851835&quot;&gt;{&lt;/span&gt;&lt;/span&gt;&lt;span class=&quot;LineBreakBlob BlobObject DragDrop  BCX2 SCXW70851835&quot; style=&quot;line-height: 23.7417px&quot;&gt;&lt;span class=&quot;BCX2 SCXW70851835&quot;&gt; &lt;/span&gt;&lt;/span&gt;&lt;span style=&quot;line-height: 23.7417px&quot; class=&quot;TextRun  BCX2 SCXW70851835&quot; lang=&quot;RU-RU&quot;&gt;&lt;span class=&quot;NormalTextRun  BCX2 SCXW70851835&quot;&gt;&lt;/span&gt;&lt;span class=&quot;SpellingError  BCX2 SCXW70851835&quot;&gt;int&lt;/span&gt;&lt;span class=&quot;NormalTextRun  BCX2 SCXW70851835&quot;&gt; &lt;/span&gt;&lt;span class=&quot;SpellingError  BCX2 SCXW70851835&quot;&gt;ct&lt;/span&gt;&lt;span class=&quot;NormalTextRun  BCX2 SCXW70851835&quot;&gt;;&lt;/span&gt;&lt;/span&gt;&lt;span class=&quot;LineBreakBlob BlobObject DragDrop  BCX2 SCXW70851835&quot; style=&quot;line-height: 23.7417px&quot;&gt;&lt;span class=&quot;BCX2 SCXW70851835&quot;&gt;&amp;nbsp;&lt;/span&gt;&lt;br class=&quot;BCX2 SCXW70851835&quot;&gt;&lt;/span&gt;&lt;span style=&quot;line-height: 23.7417px&quot; class=&quot;TextRun  BCX2 SCXW70851835&quot; lang=&quot;RU-RU&quot;&gt;&lt;span class=&quot;NormalTextRun  BCX2 SCXW70851835&quot;&gt;&amp;nbsp;&amp;nbsp;&amp;nbsp; &lt;/span&gt;&lt;span class=&quot;SpellingError  BCX2 SCXW70851835&quot;&gt;double&lt;/span&gt;&lt;span class=&quot;NormalTextRun  BCX2 SCXW70851835&quot;&gt; &lt;/span&gt;&lt;span class=&quot;NormalTextRun  BCX2 SCXW70851835&quot;&gt;ct2&lt;/span&gt;&lt;span class=&quot;NormalTextRun  BCX2 SCXW70851835&quot;&gt;;&lt;/span&gt;&lt;/span&gt;&lt;span class=&quot;LineBreakBlob BlobObject DragDrop  BCX2 SCXW70851835&quot; style=&quot;line-height: 23.7417px&quot;&gt;&lt;span class=&quot;BCX2 SCXW70851835&quot;&gt; &lt;/span&gt;&lt;/span&gt;&lt;span style=&quot;line-height: 23.7417px&quot; class=&quot;TextRun  BCX2 SCXW70851835&quot; lang=&quot;RU-RU&quot;&gt;&lt;span class=&quot;NormalTextRun  BCX2 SCXW70851835&quot;&gt;};&lt;/span&gt;&lt;/span&gt;&lt;/font&gt;" style="rounded=0;whiteSpace=wrap;html=1;" vertex="1" parent="1">
          <mxGeometry x="2020" y="140" width="120" height="40" as="geometry" />
        </mxCell>
        <mxCell id="m7cJXbedzszWfEb2ctCH-21" value="" style="edgeStyle=orthogonalEdgeStyle;rounded=0;orthogonalLoop=1;jettySize=auto;html=1;" edge="1" parent="1" source="m7cJXbedzszWfEb2ctCH-19" target="m7cJXbedzszWfEb2ctCH-20">
          <mxGeometry relative="1" as="geometry" />
        </mxCell>
        <mxCell id="m7cJXbedzszWfEb2ctCH-19" value="Начало" style="ellipse;whiteSpace=wrap;html=1;" vertex="1" parent="1">
          <mxGeometry x="2220" y="40" width="120" height="80" as="geometry" />
        </mxCell>
        <mxCell id="m7cJXbedzszWfEb2ctCH-23" value="" style="edgeStyle=orthogonalEdgeStyle;rounded=0;orthogonalLoop=1;jettySize=auto;html=1;" edge="1" parent="1" source="m7cJXbedzszWfEb2ctCH-20" target="m7cJXbedzszWfEb2ctCH-22">
          <mxGeometry relative="1" as="geometry" />
        </mxCell>
        <mxCell id="m7cJXbedzszWfEb2ctCH-20" value="&lt;font style=&quot;font-size: 12px&quot; face=&quot;Helvetica&quot;&gt;&lt;span style=&quot;line-height: 23.7417px&quot; class=&quot;TextRun  BCX2 SCXW138620317&quot; lang=&quot;RU-RU&quot;&gt;&lt;span class=&quot;NormalTextRun  BCX2 SCXW138620317&quot;&gt;&lt;/span&gt;&lt;span class=&quot;SpellingError  BCX2 SCXW138620317&quot;&gt;int&lt;/span&gt;&lt;span class=&quot;NormalTextRun  BCX2 SCXW138620317&quot;&gt; &lt;/span&gt;&lt;span class=&quot;SpellingError  BCX2 SCXW138620317&quot;&gt;tr_ct&lt;/span&gt;&lt;span class=&quot;NormalTextRun  BCX2 SCXW138620317&quot;&gt;;&lt;/span&gt;&lt;/span&gt;&lt;span class=&quot;LineBreakBlob BlobObject DragDrop  BCX2 SCXW138620317&quot; style=&quot;line-height: 23.7417px&quot;&gt;&lt;span class=&quot;BCX2 SCXW138620317&quot;&gt;&amp;nbsp;&lt;/span&gt;&lt;br class=&quot;BCX2 SCXW138620317&quot;&gt;&lt;/span&gt;&lt;span style=&quot;line-height: 23.7417px&quot; class=&quot;TextRun  BCX2 SCXW138620317&quot; lang=&quot;RU-RU&quot;&gt;&lt;span class=&quot;NormalTextRun  BCX2 SCXW138620317&quot;&gt;&amp;nbsp;&amp;nbsp;&amp;nbsp; &lt;/span&gt;&lt;span class=&quot;SpellingError  BCX2 SCXW138620317&quot;&gt;float&lt;/span&gt;&lt;span class=&quot;NormalTextRun  BCX2 SCXW138620317&quot;&gt; &lt;/span&gt;&lt;span class=&quot;NormalTextRun  BCX2 SCXW138620317&quot;&gt;tr_ct2&lt;/span&gt;&lt;span class=&quot;NormalTextRun  BCX2 SCXW138620317&quot;&gt;, &lt;/span&gt;&lt;span class=&quot;NormalTextRun  BCX2 SCXW138620317&quot;&gt;s&lt;/span&gt;&lt;span class=&quot;NormalTextRun  BCX2 SCXW138620317&quot;&gt;;&lt;/span&gt;&lt;/span&gt;&lt;span class=&quot;LineBreakBlob BlobObject DragDrop  BCX2 SCXW138620317&quot; style=&quot;line-height: 23.7417px&quot;&gt;&lt;span class=&quot;BCX2 SCXW138620317&quot;&gt;&amp;nbsp;&lt;/span&gt;&lt;br class=&quot;BCX2 SCXW138620317&quot;&gt;&lt;/span&gt;&lt;span style=&quot;line-height: 23.7417px&quot; class=&quot;TextRun  BCX2 SCXW138620317&quot; lang=&quot;RU-RU&quot;&gt;&lt;span class=&quot;NormalTextRun  BCX2 SCXW138620317&quot;&gt;&lt;/span&gt;&lt;/span&gt;&lt;/font&gt;" style="rounded=0;whiteSpace=wrap;html=1;" vertex="1" parent="1">
          <mxGeometry x="2220" y="139" width="120" height="41" as="geometry" />
        </mxCell>
        <mxCell id="m7cJXbedzszWfEb2ctCH-25" value="" style="edgeStyle=orthogonalEdgeStyle;rounded=0;orthogonalLoop=1;jettySize=auto;html=1;" edge="1" parent="1" source="m7cJXbedzszWfEb2ctCH-22" target="m7cJXbedzszWfEb2ctCH-24">
          <mxGeometry relative="1" as="geometry" />
        </mxCell>
        <mxCell id="m7cJXbedzszWfEb2ctCH-22" value="&lt;font style=&quot;font-size: 12px&quot; face=&quot;Helvetica&quot;&gt;&lt;span style=&quot;line-height: 23.7417px&quot; class=&quot;TextRun  BCX2 SCXW138620317&quot; lang=&quot;RU-RU&quot;&gt;&lt;span class=&quot;NormalTextRun  BCX2 SCXW138620317&quot;&gt;&lt;/span&gt;&lt;span class=&quot;SpellingError  BCX2 SCXW138620317&quot;&gt;tr_ct&lt;/span&gt;&lt;span class=&quot;NormalTextRun  BCX2 SCXW138620317&quot;&gt; = k + l + n&lt;/span&gt;&lt;span class=&quot;NormalTextRun  BCX2 SCXW138620317&quot;&gt;;&lt;/span&gt;&lt;/span&gt;&lt;span class=&quot;LineBreakBlob BlobObject DragDrop  BCX2 SCXW138620317&quot; style=&quot;line-height: 23.7417px&quot;&gt;&lt;span class=&quot;BCX2 SCXW138620317&quot;&gt;&amp;nbsp;&lt;/span&gt;&lt;br class=&quot;BCX2 SCXW138620317&quot;&gt;&lt;/span&gt;&lt;span style=&quot;line-height: 23.7417px&quot; class=&quot;TextRun  BCX2 SCXW138620317&quot; lang=&quot;RU-RU&quot;&gt;&lt;span class=&quot;NormalTextRun  BCX2 SCXW138620317&quot;&gt;&amp;nbsp;&amp;nbsp;&amp;nbsp; &lt;/span&gt;&lt;span class=&quot;NormalTextRun  BCX2 SCXW138620317&quot;&gt;s = &lt;/span&gt;&lt;span class=&quot;SpellingError  BCX2 SCXW138620317&quot;&gt;float&lt;/span&gt;&lt;span class=&quot;NormalTextRun  BCX2 SCXW138620317&quot;&gt;(&lt;/span&gt;&lt;span class=&quot;SpellingError  BCX2 SCXW138620317&quot;&gt;tr_ct&lt;/span&gt;&lt;span class=&quot;NormalTextRun  BCX2 SCXW138620317&quot;&gt;)/&lt;/span&gt;&lt;span class=&quot;NormalTextRun  BCX2 SCXW138620317&quot;&gt;2&lt;/span&gt;&lt;span class=&quot;NormalTextRun  BCX2 SCXW138620317&quot;&gt;;&lt;/span&gt;&lt;/span&gt;&lt;span class=&quot;LineBreakBlob BlobObject DragDrop  BCX2 SCXW138620317&quot; style=&quot;line-height: 23.7417px&quot;&gt;&lt;span class=&quot;BCX2 SCXW138620317&quot;&gt;&amp;nbsp;&lt;/span&gt;&lt;br class=&quot;BCX2 SCXW138620317&quot;&gt;&lt;/span&gt;&lt;span style=&quot;line-height: 23.7417px&quot; class=&quot;TextRun  BCX2 SCXW138620317&quot; lang=&quot;RU-RU&quot;&gt;&lt;span class=&quot;NormalTextRun  BCX2 SCXW138620317&quot;&gt;&amp;nbsp;&amp;nbsp;&amp;nbsp; &lt;/span&gt;&lt;span class=&quot;NormalTextRun  BCX2 SCXW138620317&quot;&gt;tr_ct2 = &lt;/span&gt;&lt;span class=&quot;SpellingError  BCX2 SCXW138620317&quot;&gt;sqrt&lt;/span&gt;&lt;span class=&quot;NormalTextRun  BCX2 SCXW138620317&quot;&gt;(s*(s-&lt;/span&gt;&lt;span class=&quot;ContextualSpellingAndGrammarError  BCX2 SCXW138620317&quot;&gt;k)*&lt;/span&gt;&lt;span class=&quot;NormalTextRun  BCX2 SCXW138620317&quot;&gt;(s-&lt;/span&gt;&lt;span class=&quot;ContextualSpellingAndGrammarError  BCX2 SCXW138620317&quot;&gt;l)*&lt;/span&gt;&lt;span class=&quot;NormalTextRun  BCX2 SCXW138620317&quot;&gt;(s-n))&lt;/span&gt;&lt;span class=&quot;NormalTextRun  BCX2 SCXW138620317&quot;&gt;;&lt;/span&gt;&lt;/span&gt;&lt;/font&gt;" style="rounded=0;whiteSpace=wrap;html=1;" vertex="1" parent="1">
          <mxGeometry x="2220" y="200" width="120" height="100" as="geometry" />
        </mxCell>
        <mxCell id="m7cJXbedzszWfEb2ctCH-27" value="" style="edgeStyle=orthogonalEdgeStyle;rounded=0;orthogonalLoop=1;jettySize=auto;html=1;" edge="1" parent="1" source="m7cJXbedzszWfEb2ctCH-24" target="m7cJXbedzszWfEb2ctCH-26">
          <mxGeometry relative="1" as="geometry" />
        </mxCell>
        <mxCell id="m7cJXbedzszWfEb2ctCH-24" value="&lt;div&gt;&lt;font style=&quot;font-size: 12px&quot; face=&quot;Helvetica&quot;&gt;&lt;span style=&quot;line-height: 23.7417px&quot; class=&quot;TextRun  BCX2 SCXW138620317&quot; lang=&quot;RU-RU&quot;&gt;&lt;span class=&quot;NormalTextRun  BCX2 SCXW138620317&quot;&gt;&lt;/span&gt;&lt;span class=&quot;SpellingError  BCX2 SCXW138620317&quot;&gt;return&lt;/span&gt;&lt;span class=&quot;NormalTextRun  BCX2 SCXW138620317&quot;&gt; &lt;/span&gt;&lt;span class=&quot;SpellingError  BCX2 SCXW138620317&quot;&gt;triang&lt;/span&gt;&lt;span class=&quot;NormalTextRun  BCX2 SCXW138620317&quot;&gt; &lt;br&gt;&lt;/span&gt;&lt;/span&gt;&lt;/font&gt;&lt;/div&gt;&lt;div&gt;&lt;font style=&quot;font-size: 12px&quot; face=&quot;Helvetica&quot;&gt;&lt;span style=&quot;line-height: 23.7417px&quot; class=&quot;TextRun  BCX2 SCXW138620317&quot; lang=&quot;RU-RU&quot;&gt;&lt;span class=&quot;NormalTextRun  BCX2 SCXW138620317&quot;&gt;{&lt;/span&gt;&lt;span class=&quot;SpellingError  BCX2 SCXW138620317&quot;&gt;tr_ct&lt;/span&gt;&lt;span class=&quot;NormalTextRun  BCX2 SCXW138620317&quot;&gt;, &lt;/span&gt;&lt;span class=&quot;NormalTextRun  BCX2 SCXW138620317&quot;&gt;tr_ct2}&lt;/span&gt;&lt;span class=&quot;NormalTextRun  BCX2 SCXW138620317&quot;&gt;;&lt;/span&gt;&lt;/span&gt;&lt;span class=&quot;LineBreakBlob BlobObject DragDrop  BCX2 SCXW138620317&quot; style=&quot;line-height: 23.7417px&quot;&gt;&lt;span class=&quot;BCX2 SCXW138620317&quot;&gt;&amp;nbsp;&lt;/span&gt;&lt;/span&gt;&lt;/font&gt;&lt;/div&gt;&lt;div&gt;&lt;font style=&quot;font-size: 12px&quot; face=&quot;Helvetica&quot;&gt;&lt;span class=&quot;LineBreakBlob BlobObject DragDrop  BCX2 SCXW138620317&quot; style=&quot;line-height: 23.7417px&quot;&gt;&lt;/span&gt;&lt;/font&gt;&lt;/div&gt;&lt;font style=&quot;font-size: 12px&quot; face=&quot;Helvetica&quot;&gt;&lt;span style=&quot;line-height: 23.7417px&quot; class=&quot;TextRun  BCX2 SCXW138620317&quot; lang=&quot;RU-RU&quot;&gt;&lt;span class=&quot;NormalTextRun  BCX2 SCXW138620317&quot;&gt;&lt;/span&gt;&lt;/span&gt;&lt;/font&gt;" style="shape=parallelogram;perimeter=parallelogramPerimeter;whiteSpace=wrap;html=1;fixedSize=1;" vertex="1" parent="1">
          <mxGeometry x="2220" y="321" width="120" height="39" as="geometry" />
        </mxCell>
        <mxCell id="m7cJXbedzszWfEb2ctCH-26" value="Конец" style="ellipse;whiteSpace=wrap;html=1;" vertex="1" parent="1">
          <mxGeometry x="2220" y="380" width="120" height="80" as="geometry" />
        </mxCell>
      </root>
    </mxGraphModel>
  </diagram>
</mxfile>
